<?xml version="1.0" encoding="utf-8"?>
<!-- Generator: Adobe Illustrator 16.0.0, SVG Export Plug-In . SVG Version: 6.00 Build 0)  -->
<!DOCTYPE svg PUBLIC "-//W3C//DTD SVG 1.1//EN" "http://www.w3.org/Graphics/SVG/1.1/DTD/svg11.dtd">
<svg version="1.1" id="Ebene_1" xmlns="http://www.w3.org/2000/svg" xmlns:xlink="http://www.w3.org/1999/xlink" x="0px" y="0px"
	 width="150px" height="150px" viewBox="0 0 150 150" enable-background="new 0 0 150 150" xml:space="preserve">
<ellipse fill="#F2F2F2" cx="74.173" cy="74.758" rx="73.641" ry="74.575"/>
<g>
	<defs>
		<circle id="SVGID_1_" cx="74.164" cy="74.66" r="74.162"/>
	</defs>
	<clipPath id="SVGID_2_">
		<use xlink:href="#SVGID_1_"  overflow="visible"/>
	</clipPath>
	<path clip-path="url(#SVGID_2_)" fill="#D3B39C" d="M60.602,173.124c4.093,7.164,8.359,15.183,19.275,19.957
		c0,0,8.438,27.226,13.306,27.635c32.411,2.729,67.891-2.39,67.891-2.39s-4.093-30.021-2.389-36.844
		c1.706-6.824,5.982-12.269,4.095-34.458c-2.729-32.069-12.785-52.255-13.646-54.587c-4.173-11.29-10.369-18.825-15.288-19.618
		c-1.919-0.31-4.059,0.198-6.547,1.538c-4.815,2.594-2.046,12.963-2.046,12.963s-4.064-17.114-12.623-20.241
		c-1.716-0.627-8.591-0.195-10.463,2.729c-3.639,5.686-0.113,19.899-0.113,19.899s-2.897-21.594-9.438-23.993
		c-13.647-5.004-16.377,6.368-16.377,6.368c-0.382,8.043,2.958,26.838,2.958,26.838l-6.824-32.07c0,0-1.707-8.188-4.094-15.011
		c-2.388-6.823-8.188-22.175-11.599-31.728c-3.412-9.553-18.423-6.141-17.4,5.117c1.024,11.258,6.141,29.681,6.141,29.681
		s2.047,15.011,4.094,21.494c2.047,6.481,8.871,50.15,8.871,50.15s-10.818-24.956-20.925-35.594
		c-8.643-9.098-18.31-2.616-17.627-0.911c0.682,1.706,28.316,62.093,28.316,62.093L60.602,173.124z"/>
	<path clip-path="url(#SVGID_2_)" fill="#A88876" d="M57.701,125.532c1.876-5.459-5.799-51.63-5.799-51.63
		c-4.691-10.803-6.226-26.923-6.226-26.923c-5.715-11.259-4.939-28.289-5.118-27.89c-0.597,1.335-1.5,3.25-1.308,5.373
		c1.023,11.258,5.941,29.539,5.941,29.539s2.047,15.011,4.094,21.492c2.047,6.483,8.87,50.151,8.87,50.151L57.701,125.532z"/>
	<path clip-path="url(#SVGID_2_)" fill="#FFEADC" d="M43.714,19.089c0,0,2.729-5.687,10.007-2.047c0,0,2.773,9.129,2.502,10.689
		c-0.454,2.616-7.846,5.118-9.666,1.024S43.714,19.089,43.714,19.089z"/>
	<path clip-path="url(#SVGID_2_)" fill="#FFFBF8" d="M43.714,19.089c0,0,2.842-5.8,10.007-2.047l0.342,1.706
		c0,0-5.8-4.435-10.008,1.706L43.714,19.089z"/>
	<path clip-path="url(#SVGID_2_)" fill="#A88876" d="M78.483,67.932l0.03,27.35c0,0-2.792-19.91-2.276-23.199
		C76.465,70.633,78.483,67.932,78.483,67.932z"/>
	<path clip-path="url(#SVGID_2_)" fill="#A88876" d="M103.333,68.664l-2.454,14.351c0,0-0.83-6.099,0.122-10.306
		C101.775,69.283,103.333,68.664,103.333,68.664z"/>
	<path clip-path="url(#SVGID_2_)" fill="#A88876" d="M126.503,74.926l-1.479,11.145c0,0-1.167-3.283-0.453-7.499
		C125.023,75.893,126.503,74.926,126.503,74.926z"/>
	<path clip-path="url(#SVGID_2_)" fill="#FFEADC" d="M20.003,90.436c0,0,2.098-1.747,5.098-0.727c3.005,1.024,4.37,9.127,4.37,9.127
		c-1.109,1.621-4.52,2.559-4.52,2.559L20.003,90.436z"/>
	<path clip-path="url(#SVGID_2_)" fill="#FFFBF8" d="M20.003,90.436c0,0,2.271-1.931,5.544-0.523l0.757,0.64l-5.906,0.736
		L20.003,90.436z"/>
	<path clip-path="url(#SVGID_2_)" fill="#D3BDAF" d="M61.114,174.232c0,0-2.779-8.235-0.683-5.63
		c6.312,7.848,17.686,22.669,26.155,21.578l6.597,30.535c-6.255-1.25-12.966-27.008-11.942-26.781
		C81.24,193.935,68.504,188.901,61.114,174.232z"/>
	<path clip-path="url(#SVGID_2_)" fill="#A88876" d="M24.95,101.395c0,0,4.265,8.444,5.97,9.809
		c1.706,1.365,4.776,15.522,6.995,17.57c2.217,2.047,10.576,13.475,12.281,16.034c1.706,2.559,12.624,29.681,12.624,29.681
		l-2.303-1.62L47.978,151.46L24.95,101.395z"/>
</g>
</svg>
