<?xml version="1.0" encoding="utf-8"?>
<!-- Generator: Adobe Illustrator 16.0.0, SVG Export Plug-In . SVG Version: 6.00 Build 0)  -->
<!DOCTYPE svg PUBLIC "-//W3C//DTD SVG 1.1//EN" "http://www.w3.org/Graphics/SVG/1.1/DTD/svg11.dtd">
<svg version="1.1" xmlns="http://www.w3.org/2000/svg" xmlns:xlink="http://www.w3.org/1999/xlink" x="0px" y="0px"
	 width="40.384px" height="41.209px" viewBox="0 0 40.384 41.209" enable-background="new 0 0 40.384 41.209" xml:space="preserve">
<g id="Ebene_2">
	<rect x="0.539" y="0.385" fill="#FFFFFF" width="40" height="40"/>
</g>
<g id="Ebene_1">
	<g>
		<g>
			<path fill="#2581C4" d="M9.864,15.979c5.156,4.771,10.312,9.542,15.468,14.314c3.307,3.061,8.269-1.877,4.949-4.949
				C25.125,20.572,19.97,15.8,14.814,11.029C11.507,7.968,6.544,12.907,9.864,15.979L9.864,15.979z"/>
		</g>
	</g>
	<g>
		<g>
			<path fill="#2581C4" d="M25.743,10.986c-5.32,4.855-10.64,9.71-15.96,14.564c-3.341,3.049,1.624,7.985,4.95,4.949
				c5.32-4.854,10.64-9.709,15.959-14.563C34.034,12.888,29.069,7.951,25.743,10.986L25.743,10.986z"/>
		</g>
	</g>
</g>
</svg>
