<?xml version="1.0" encoding="utf-8"?>
<!-- Generator: Adobe Illustrator 16.0.0, SVG Export Plug-In . SVG Version: 6.00 Build 0)  -->
<!DOCTYPE svg PUBLIC "-//W3C//DTD SVG 1.1//EN" "http://www.w3.org/Graphics/SVG/1.1/DTD/svg11.dtd">
<svg version="1.1" id="Ebene_1" xmlns="http://www.w3.org/2000/svg" xmlns:xlink="http://www.w3.org/1999/xlink" x="0px" y="0px"
	 width="68.25px" height="68.25px" viewBox="0 0 68.25 68.25" enable-background="new 0 0 68.25 68.25" xml:space="preserve">
<rect x="0.25" y="0.25" fill="#999797" width="68" height="68"/>
<path fill="#676767" d="M64.25,59.847c0,2.432-1.971,4.403-4.402,4.403H8.652c-2.431,0-4.402-1.972-4.402-4.403V8.653
	c0-2.432,1.971-4.403,4.402-4.403h51.195c2.432,0,4.402,1.972,4.402,4.403V59.847z"/>
<rect x="13.081" y="27.084" fill="none" width="46.001" height="21.333"/>
<text transform="matrix(1 0 0 1 13.0811 42.1201)" fill="#CDCCCC" font-family="'Arial-BoldMT'" font-size="21">CPU</text>
<circle fill="#4E4E4E" cx="64.688" cy="65.187" r="1.604"/>
<circle fill="#4E4E4E" cx="3.688" cy="65.187" r="1.604"/>
<circle fill="#4E4E4E" cx="2.688" cy="3.187" r="1.604"/>
<circle fill="#4E4E4E" cx="64.688" cy="3.187" r="1.604"/>
</svg>
