<?xml version="1.0" encoding="utf-8"?>
<!-- Generator: Adobe Illustrator 16.0.0, SVG Export Plug-In . SVG Version: 6.00 Build 0)  -->
<!DOCTYPE svg PUBLIC "-//W3C//DTD SVG 1.1//EN" "http://www.w3.org/Graphics/SVG/1.1/DTD/svg11.dtd">
<svg version="1.1" id="Ebene_1" xmlns="http://www.w3.org/2000/svg" xmlns:xlink="http://www.w3.org/1999/xlink" x="0px" y="0px"
	 width="59.333px" height="59.667px" viewBox="0 0 59.333 59.667" enable-background="new 0 0 59.333 59.667" xml:space="preserve">
<path fill="#575756" d="M59.174,54.472c0,2.961-2.402,5.363-5.363,5.363H5.538c-2.962,0-5.364-2.402-5.364-5.363V6.198
	c0-2.962,2.401-5.364,5.364-5.364h48.273c2.961,0,5.363,2.401,5.363,5.364V54.472z"/>
<g>
	<defs>
		<rect id="SVGID_1_" x="11.056" y="9.356" width="37.207" height="39.805"/>
	</defs>
	<clipPath id="SVGID_2_">
		<use xlink:href="#SVGID_1_"  overflow="visible"/>
	</clipPath>
	<path clip-path="url(#SVGID_2_)" fill="#FFFFFF" d="M47.939,28.521c0.167,0,0.304-0.158,0.304-0.354
		c0-0.194-0.137-0.354-0.304-0.354c-0.017,0-0.032,0.009-0.047,0.011c0.005-0.11,0.005-0.216,0.007-0.323
		c0.02,0.004,0.038,0.012,0.059,0.012c0.168,0,0.305-0.158,0.305-0.354c0-0.194-0.137-0.353-0.305-0.353
		c-0.02,0-0.036,0.009-0.054,0.013c-0.003-0.112-0.005-0.221-0.01-0.329c0.011,0,0.021,0.008,0.031,0.008
		c0.168,0,0.303-0.159,0.303-0.354c0-0.194-0.135-0.354-0.303-0.354c-0.028,0-0.055,0.012-0.082,0.021
		c-0.014-0.119-0.025-0.239-0.038-0.354c0.167,0,0.303-0.159,0.303-0.354c0-0.195-0.136-0.353-0.303-0.353
		c-0.043,0-0.081,0.011-0.117,0.029c-0.023-0.116-0.044-0.23-0.073-0.341c0.155-0.015,0.28-0.163,0.28-0.346
		c0-0.199-0.135-0.356-0.304-0.356c-0.062,0-0.115,0.025-0.161,0.062c-0.04-0.119-0.08-0.235-0.124-0.346
		c0.142-0.033,0.249-0.17,0.249-0.341c0-0.195-0.137-0.356-0.304-0.356c-0.082,0-0.153,0.039-0.207,0.099
		c-0.044-0.088-0.093-0.172-0.141-0.253c0.123-0.047,0.215-0.175,0.215-0.334c0-0.195-0.138-0.354-0.306-0.354
		c-0.105,0-0.193,0.066-0.249,0.163c-0.065-0.087-0.131-0.175-0.197-0.253c0.087-0.062,0.148-0.169,0.148-0.297
		c0-0.196-0.136-0.354-0.305-0.354c-0.125,0-0.232,0.089-0.28,0.216c-0.074-0.064-0.151-0.126-0.231-0.184
		c0.062-0.065,0.105-0.157,0.105-0.265c0-0.194-0.135-0.353-0.304-0.353c-0.154,0-0.279,0.139-0.296,0.313
		c-0.093-0.05-0.187-0.1-0.272-0.145c0.038-0.06,0.066-0.129,0.066-0.212c0-0.194-0.138-0.353-0.303-0.353
		c-0.16,0-0.284,0.14-0.3,0.321c-0.093-0.039-0.187-0.077-0.274-0.109c0.024-0.051,0.044-0.109,0.044-0.173
		c0-0.195-0.137-0.354-0.306-0.354c-0.167,0-0.302,0.159-0.303,0.354c-0.09-0.024-0.18-0.041-0.264-0.056
		c0.01-0.036,0.02-0.075,0.02-0.116c0-0.195-0.136-0.353-0.304-0.353s-0.306,0.158-0.306,0.353c0,0.02,0.008,0.037,0.012,0.056
		c-0.033,0-0.064-0.004-0.096-0.004c-0.063,0-0.125,0.006-0.188,0.008c0.006-0.031,0.016-0.061,0.016-0.094
		c0-0.196-0.135-0.354-0.304-0.354c-0.168,0-0.303,0.158-0.303,0.354c0,0.058,0.015,0.112,0.036,0.161
		c-0.101,0.017-0.202,0.039-0.3,0.062c0.002-0.021,0.008-0.037,0.008-0.058c0-0.195-0.135-0.354-0.304-0.354
		c-0.167,0-0.304,0.158-0.304,0.354c0,0.08,0.027,0.146,0.062,0.205c-0.101,0.031-0.201,0.06-0.304,0.096
		c0-0.002,0.001-0.002,0.001-0.006c0-0.195-0.136-0.354-0.305-0.354c-0.168,0-0.304,0.159-0.304,0.354
		c0,0.067,0.019,0.125,0.048,0.177c-0.1,0.03-0.2,0.061-0.304,0.091c0-0.001,0.002-0.006,0.002-0.009
		c0-0.195-0.136-0.354-0.305-0.354c-0.166,0-0.303,0.159-0.303,0.354c0,0.061,0.015,0.114,0.037,0.163
		c-0.025,0.004-0.048,0.011-0.075,0.017c-0.074,0.02-0.153,0.039-0.231,0.054c0.001-0.013,0.006-0.022,0.006-0.037
		c0-0.194-0.135-0.353-0.304-0.353s-0.304,0.159-0.304,0.353c0,0.054,0.012,0.104,0.03,0.15c-0.084,0.015-0.165,0.028-0.253,0.043
		c0.004-0.02,0.011-0.041,0.011-0.062c0-0.194-0.136-0.353-0.305-0.353c-0.167,0-0.304,0.159-0.304,0.353
		c0,0.049,0.009,0.096,0.023,0.136c-0.101,0.01-0.2,0.021-0.304,0.029c0.004-0.027,0.014-0.056,0.014-0.085
		c0-0.194-0.136-0.354-0.305-0.354c-0.166,0-0.304,0.159-0.304,0.354c0,0.045,0.01,0.085,0.021,0.125
		c-0.099,0.003-0.2,0.01-0.304,0.012c0.011-0.036,0.019-0.075,0.019-0.113c0-0.197-0.137-0.356-0.304-0.356
		c-0.169,0-0.304,0.159-0.304,0.356c0,0.043,0.01,0.082,0.021,0.12c-0.096,0-0.19-0.002-0.282-0.005
		c0.015-0.04,0.022-0.084,0.022-0.13c0-0.198-0.136-0.355-0.303-0.355c-0.169,0-0.305,0.158-0.305,0.355
		c0,0.036,0.009,0.07,0.019,0.104c-0.104-0.008-0.204-0.018-0.305-0.028c0.017-0.04,0.025-0.087,0.025-0.136
		c0-0.197-0.137-0.354-0.303-0.354c-0.169,0-0.306,0.156-0.306,0.354c0,0.022,0.01,0.045,0.014,0.068
		c-0.097-0.015-0.187-0.029-0.276-0.047c0.024-0.051,0.04-0.105,0.04-0.168c0-0.196-0.135-0.354-0.304-0.354
		c-0.166,0-0.302,0.158-0.302,0.354c0,0.019,0.004,0.032,0.007,0.049c-0.109-0.029-0.216-0.055-0.317-0.089
		c0.024-0.049,0.043-0.107,0.043-0.168c0-0.198-0.136-0.355-0.306-0.355c-0.16,0-0.289,0.148-0.299,0.334
		c-0.101-0.041-0.197-0.082-0.291-0.125c0.033-0.056,0.056-0.12,0.056-0.193c0-0.194-0.137-0.353-0.304-0.353
		c-0.143,0-0.256,0.116-0.288,0.271c-0.111-0.064-0.213-0.131-0.312-0.197c0.06-0.064,0.1-0.154,0.1-0.26
		c0-0.194-0.136-0.353-0.305-0.353c-0.129,0-0.238,0.096-0.282,0.23c-0.067-0.061-0.129-0.123-0.188-0.182
		c0.083-0.063,0.141-0.168,0.141-0.292c0-0.195-0.136-0.354-0.303-0.354c-0.104,0-0.192,0.064-0.247,0.159
		c-0.08-0.115-0.15-0.222-0.202-0.315c-0.006-0.012-0.009-0.02-0.015-0.03c0.924-0.172,1.63-1.102,1.63-2.229
		c0-0.693-0.271-1.314-0.692-1.73h0.044l-0.043-0.112l-0.102-0.281c0-0.002-0.065-0.172-0.142-0.485
		c-0.054-0.213-0.125-0.542-0.177-0.941c0.425,0.066,0.831,0.2,1.205,0.392l0.241,0.125l0.099,0.052v-0.125v-2.654v-0.122
		l-0.097,0.047l-0.241,0.118c-0.001,0.003-0.153,0.078-0.418,0.167c-0.262,0.087-0.534,0.159-0.809,0.207
		c0.059-0.496,0.171-0.966,0.338-1.403l0.104-0.282l0.044-0.113h-0.106h-2.277h-0.106l0.042,0.111l0.102,0.276l0.002,0.008
		c0.021,0.057,0.075,0.224,0.14,0.483c0.054,0.211,0.126,0.544,0.178,0.94c-0.426-0.066-0.831-0.197-1.206-0.391l-0.24-0.126
		l-0.098-0.049v0.125v2.652v0.122l0.097-0.046L27.7,13.35l0.017-0.002l0.012-0.008c0.051-0.022,0.191-0.087,0.416-0.165
		c0.262-0.086,0.534-0.158,0.81-0.205c-0.058,0.497-0.171,0.968-0.336,1.403l-0.108,0.281l-0.021,0.058
		c-0.46,0.413-0.758,1.058-0.758,1.787c0,1.118,0.698,2.044,1.612,2.224c-0.054,0.105-0.125,0.221-0.216,0.35
		c-0.054-0.095-0.143-0.159-0.246-0.159c-0.169,0-0.304,0.159-0.304,0.354c0,0.124,0.058,0.229,0.142,0.293
		c-0.057,0.058-0.123,0.117-0.188,0.178c-0.045-0.131-0.154-0.228-0.284-0.228c-0.167,0-0.304,0.158-0.304,0.353
		c0,0.106,0.039,0.196,0.1,0.26c-0.098,0.066-0.201,0.133-0.311,0.197c-0.034-0.154-0.147-0.271-0.29-0.271
		c-0.169,0-0.304,0.159-0.304,0.353c0,0.074,0.023,0.137,0.057,0.193c-0.095,0.043-0.191,0.083-0.291,0.125
		c-0.011-0.186-0.14-0.334-0.301-0.334c-0.168,0-0.303,0.158-0.303,0.355c0,0.062,0.017,0.117,0.042,0.168
		c-0.103,0.03-0.208,0.06-0.318,0.089c0.002-0.018,0.008-0.033,0.008-0.049c0-0.196-0.137-0.354-0.303-0.354
		c-0.169,0-0.304,0.158-0.304,0.354c0,0.063,0.016,0.117,0.041,0.168c-0.091,0.018-0.181,0.035-0.276,0.047
		c0.004-0.022,0.013-0.045,0.013-0.068c0-0.197-0.138-0.354-0.305-0.354s-0.305,0.156-0.305,0.354c0,0.049,0.009,0.096,0.026,0.136
		c-0.1,0.011-0.2,0.022-0.304,0.028c0.01-0.035,0.02-0.068,0.02-0.104c0-0.198-0.136-0.355-0.305-0.355
		c-0.167,0-0.304,0.158-0.304,0.355c0,0.045,0.008,0.09,0.023,0.13c-0.093,0.002-0.186,0.005-0.283,0.005
		c0.013-0.039,0.021-0.077,0.021-0.12c0-0.197-0.135-0.356-0.304-0.356c-0.167,0-0.303,0.159-0.303,0.356
		c0,0.038,0.007,0.076,0.02,0.111c-0.104-0.001-0.208-0.007-0.305-0.01c0.011-0.04,0.021-0.08,0.021-0.125
		c0-0.194-0.137-0.354-0.305-0.354c-0.166,0-0.304,0.159-0.304,0.354c0,0.029,0.009,0.058,0.014,0.085
		c-0.103-0.008-0.204-0.019-0.305-0.029c0.015-0.041,0.024-0.088,0.024-0.136c0-0.194-0.136-0.353-0.304-0.353
		c-0.168,0-0.305,0.159-0.305,0.353c0,0.022,0.008,0.04,0.012,0.061c-0.085-0.013-0.17-0.028-0.253-0.041
		c0.018-0.046,0.031-0.096,0.031-0.15c0-0.194-0.138-0.353-0.305-0.353c-0.168,0-0.305,0.159-0.305,0.353
		c0,0.014,0.005,0.024,0.005,0.037c-0.102-0.022-0.207-0.046-0.305-0.071c0.022-0.048,0.037-0.102,0.037-0.162
		c0-0.195-0.137-0.354-0.303-0.354c-0.168,0-0.305,0.159-0.305,0.354c0,0.002,0.001,0.007,0.001,0.009
		c-0.05-0.015-0.102-0.03-0.151-0.043c-0.051-0.017-0.101-0.031-0.152-0.047c0.028-0.053,0.047-0.11,0.047-0.177
		c0-0.195-0.137-0.354-0.303-0.354c-0.168,0-0.303,0.159-0.303,0.354c0,0.003,0,0.003,0,0.006c-0.103-0.036-0.205-0.065-0.304-0.098
		c0.036-0.057,0.062-0.125,0.062-0.203c0-0.195-0.137-0.354-0.304-0.354c-0.167,0-0.303,0.158-0.303,0.354
		c0,0.021,0.007,0.038,0.009,0.058c-0.1-0.024-0.201-0.046-0.301-0.062c0.021-0.049,0.037-0.103,0.037-0.161
		c0-0.196-0.137-0.354-0.304-0.354c-0.169,0-0.304,0.158-0.304,0.354c0,0.034,0.01,0.063,0.017,0.094
		c-0.063-0.002-0.125-0.008-0.188-0.008c-0.032,0-0.063,0.004-0.095,0.004c0.002-0.02,0.01-0.036,0.01-0.056
		c0-0.195-0.137-0.353-0.305-0.353c-0.167,0-0.304,0.158-0.304,0.353c0,0.041,0.01,0.081,0.021,0.116
		c-0.086,0.015-0.175,0.032-0.265,0.056c0-0.195-0.135-0.354-0.303-0.354c-0.167,0-0.304,0.159-0.304,0.354
		c0,0.064,0.019,0.122,0.043,0.173c-0.089,0.032-0.181,0.07-0.274,0.109c-0.015-0.181-0.141-0.321-0.298-0.321
		c-0.167,0-0.303,0.159-0.303,0.353c0,0.083,0.026,0.152,0.064,0.212c-0.086,0.045-0.18,0.095-0.272,0.145
		c-0.018-0.176-0.141-0.313-0.296-0.313c-0.168,0-0.304,0.159-0.304,0.353c0,0.107,0.042,0.2,0.105,0.267
		c-0.078,0.055-0.156,0.117-0.231,0.182c-0.048-0.126-0.154-0.216-0.28-0.216c-0.169,0-0.306,0.158-0.306,0.354
		c0,0.128,0.063,0.235,0.151,0.297c-0.068,0.079-0.134,0.166-0.199,0.253c-0.053-0.097-0.142-0.163-0.248-0.163
		c-0.167,0-0.303,0.158-0.303,0.354c0,0.159,0.088,0.287,0.212,0.334c-0.049,0.081-0.094,0.165-0.139,0.253
		c-0.055-0.06-0.125-0.099-0.207-0.099c-0.168,0-0.303,0.161-0.303,0.356c0,0.171,0.106,0.309,0.246,0.341
		c-0.042,0.111-0.083,0.228-0.123,0.346c-0.048-0.036-0.101-0.062-0.163-0.062c-0.167,0-0.303,0.158-0.303,0.356
		c0,0.183,0.125,0.332,0.281,0.346c-0.026,0.111-0.05,0.225-0.073,0.341c-0.037-0.018-0.076-0.029-0.116-0.029
		c-0.168,0-0.304,0.158-0.304,0.353c0,0.196,0.136,0.354,0.303,0.354c-0.015,0.115-0.026,0.235-0.039,0.354
		c-0.027-0.01-0.054-0.021-0.082-0.021c-0.167,0-0.304,0.16-0.304,0.354c0,0.195,0.137,0.354,0.304,0.354
		c0.01,0,0.019-0.008,0.029-0.008c-0.004,0.108-0.005,0.217-0.007,0.329c-0.018-0.004-0.036-0.013-0.056-0.013
		c-0.167,0-0.304,0.158-0.304,0.353c0,0.195,0.136,0.354,0.304,0.354c0.021,0,0.039-0.008,0.059-0.012
		c0.002,0.107,0.002,0.213,0.007,0.323c-0.015-0.002-0.029-0.011-0.046-0.011c-0.167,0-0.303,0.159-0.303,0.354
		c0,0.195,0.136,0.354,0.303,0.354c0.033,0,0.064-0.01,0.095-0.021c0.008,0.086,0.015,0.172,0.024,0.259
		c-0.012-0.002-0.023-0.008-0.037-0.008c-0.167,0-0.304,0.158-0.304,0.353c0,0.194,0.137,0.354,0.304,0.354
		c0.042,0,0.08-0.009,0.115-0.026c0.016,0.107,0.036,0.221,0.054,0.331c-0.002,0-0.004,0-0.006,0c-0.168,0-0.305,0.157-0.305,0.353
		c0,0.196,0.137,0.354,0.305,0.354c0.043,0,0.083-0.011,0.121-0.031c0.015,0.082,0.031,0.162,0.048,0.245
		c-0.165,0.005-0.3,0.158-0.3,0.354c0,0.194,0.137,0.354,0.304,0.354c0.05,0,0.095-0.018,0.137-0.045
		c0.022,0.101,0.048,0.198,0.072,0.3c-0.153,0.017-0.275,0.162-0.275,0.348c0,0.195,0.134,0.354,0.304,0.354
		c0.05,0,0.095-0.021,0.137-0.046c0.027,0.102,0.057,0.199,0.085,0.301c-0.144,0.027-0.257,0.165-0.257,0.342
		c0,0.194,0.137,0.354,0.303,0.354c0.054,0,0.101-0.019,0.143-0.047c0.028,0.086,0.056,0.173,0.084,0.259
		c-0.138,0.036-0.24,0.171-0.24,0.342c0,0.194,0.137,0.352,0.304,0.352c0.054,0,0.104-0.021,0.147-0.05
		c0.03,0.089,0.063,0.185,0.096,0.273c-0.146,0.028-0.26,0.166-0.26,0.345c0,0.195,0.138,0.354,0.306,0.354
		c0.067,0,0.126-0.031,0.177-0.076c0.032,0.086,0.067,0.173,0.099,0.257c-0.125,0.044-0.221,0.173-0.221,0.334
		c0,0.194,0.136,0.353,0.304,0.353c0.062,0,0.115-0.025,0.163-0.062c0.034,0.09,0.071,0.177,0.108,0.264
		c-0.133,0.038-0.233,0.172-0.233,0.338c0,0.193,0.135,0.353,0.304,0.353c0.072,0,0.136-0.032,0.188-0.082
		c0.031,0.072,0.06,0.14,0.091,0.213c-0.121,0.047-0.211,0.177-0.211,0.332c0,0.194,0.136,0.354,0.304,0.354
		c0.07,0,0.133-0.032,0.184-0.079c0.034,0.075,0.068,0.149,0.104,0.225c-0.123,0.048-0.212,0.176-0.212,0.332
		c0,0.195,0.137,0.354,0.304,0.354c0.075,0,0.14-0.035,0.193-0.087c0.029,0.063,0.063,0.126,0.095,0.189
		c-0.12,0.046-0.206,0.175-0.206,0.329c0,0.195,0.136,0.354,0.304,0.354c0.077,0,0.144-0.033,0.196-0.087
		c0.03,0.056,0.056,0.11,0.085,0.168c-0.104,0.057-0.181,0.179-0.181,0.321c0,0.197,0.137,0.356,0.305,0.356
		c0.074,0,0.138-0.037,0.191-0.085c0.031,0.058,0.06,0.112,0.091,0.171c-0.117,0.053-0.201,0.178-0.201,0.329
		c0,0.196,0.138,0.356,0.305,0.356c0.083,0,0.158-0.041,0.211-0.104c0.027,0.049,0.056,0.098,0.083,0.146
		c-0.106,0.054-0.181,0.179-0.181,0.32c0,0.196,0.137,0.354,0.304,0.354c0.081,0,0.151-0.036,0.204-0.093
		c0.029,0.046,0.055,0.093,0.083,0.143c-0.099,0.058-0.173,0.175-0.173,0.317c0,0.009,0.005,0.018,0.005,0.027
		c-0.889-0.166-1.711,0.188-1.711,0.188c2.892,1.259,2.859,3.928,2.825,4.437c-0.005,0.029-0.006,0.057-0.006,0.084
		c0,1.378,5.597,2.494,12.502,2.494c6.903,0,12.499-1.116,12.502-2.492l0.037-0.002c0,0-0.384-3.127,2.819-4.521
		c0,0-0.849-0.363-1.756-0.18c0.002-0.013,0.007-0.023,0.007-0.036c0-0.143-0.07-0.26-0.174-0.317
		c0.028-0.05,0.054-0.097,0.083-0.146c0.053,0.06,0.126,0.096,0.204,0.096c0.168,0,0.305-0.157,0.305-0.354
		c0-0.142-0.075-0.267-0.182-0.321c0.028-0.048,0.056-0.097,0.083-0.146c0.055,0.062,0.13,0.104,0.214,0.104
		c0.165,0,0.304-0.16,0.304-0.356c0-0.151-0.085-0.276-0.202-0.329c0.032-0.059,0.06-0.113,0.093-0.171
		c0.052,0.048,0.116,0.085,0.189,0.085c0.169,0,0.305-0.159,0.305-0.356c0-0.143-0.076-0.265-0.181-0.321
		c0.03-0.058,0.057-0.112,0.086-0.168c0.052,0.054,0.12,0.087,0.194,0.087c0.17,0,0.305-0.158,0.305-0.354
		c0-0.154-0.084-0.283-0.203-0.329c0.029-0.063,0.063-0.126,0.093-0.189c0.054,0.052,0.12,0.087,0.193,0.087
		c0.168,0,0.303-0.159,0.303-0.354c0-0.156-0.089-0.284-0.211-0.332c0.035-0.075,0.069-0.149,0.103-0.225
		c0.051,0.047,0.114,0.079,0.186,0.079c0.166,0,0.305-0.159,0.305-0.354c0-0.155-0.092-0.285-0.213-0.332
		c0.031-0.073,0.061-0.141,0.091-0.213c0.053,0.05,0.117,0.082,0.191,0.082c0.167,0,0.302-0.159,0.302-0.353
		c0-0.166-0.1-0.3-0.232-0.34c0.037-0.085,0.073-0.172,0.107-0.262c0.048,0.037,0.103,0.062,0.163,0.062
		c0.168,0,0.304-0.158,0.304-0.353c0-0.161-0.096-0.29-0.222-0.334c0.033-0.084,0.068-0.171,0.1-0.257
		c0.051,0.045,0.109,0.076,0.177,0.076c0.171,0,0.305-0.158,0.305-0.354c0-0.179-0.112-0.316-0.258-0.345
		c0.031-0.089,0.066-0.185,0.098-0.275c0.043,0.031,0.091,0.052,0.146,0.052c0.169,0,0.305-0.157,0.305-0.352
		c0-0.171-0.104-0.306-0.242-0.342c0.029-0.086,0.06-0.173,0.085-0.259c0.043,0.026,0.092,0.047,0.143,0.047
		c0.169,0,0.305-0.159,0.305-0.354c0-0.177-0.112-0.314-0.257-0.342c0.028-0.102,0.059-0.199,0.083-0.301
		c0.044,0.024,0.089,0.046,0.139,0.046c0.17,0,0.305-0.158,0.305-0.354c0-0.186-0.121-0.331-0.275-0.348
		c0.025-0.102,0.05-0.199,0.073-0.3c0.04,0.027,0.087,0.045,0.137,0.045c0.167,0,0.303-0.159,0.303-0.354
		c0-0.195-0.134-0.349-0.299-0.354c0.017-0.083,0.033-0.163,0.049-0.245c0.037,0.021,0.077,0.031,0.122,0.031
		c0.166,0,0.302-0.158,0.302-0.354c0-0.195-0.136-0.353-0.302-0.353c-0.004,0-0.006,0-0.008,0c0.017-0.11,0.038-0.224,0.054-0.331
		c0.034,0.018,0.074,0.026,0.114,0.026c0.168,0,0.304-0.159,0.304-0.354c0-0.195-0.136-0.353-0.304-0.353
		c-0.013,0-0.024,0.006-0.037,0.008c0.01-0.087,0.017-0.173,0.026-0.259C47.875,28.511,47.905,28.521,47.939,28.521 M37.689,21.536
		c-0.011,0.029-0.018,0.065-0.018,0.1c-0.082-0.025-0.165-0.053-0.245-0.072C37.517,21.555,37.603,21.543,37.689,21.536
		 M29.193,14.206c0.147-0.484,0.238-1,0.273-1.537l0.015-0.237l0.006-0.096l-0.083,0.011l-0.204,0.024
		c-0.556,0.062-1.016,0.201-1.329,0.314v-1.232c0.415,0.172,0.859,0.279,1.321,0.319l0.204,0.019l0.081,0.006l-0.007-0.095
		l-0.02-0.238c-0.055-0.647-0.172-1.185-0.272-1.547h1.059c-0.147,0.485-0.238,1-0.274,1.537l-0.014,0.239l-0.006,0.095l0.083-0.01
		l0.202-0.022c0.558-0.065,1.018-0.201,1.329-0.316v1.23c-0.415-0.17-0.859-0.277-1.319-0.319l-0.205-0.017l-0.082-0.007
		l0.008,0.097l0.019,0.236c0.056,0.648,0.173,1.184,0.271,1.546H29.193z M21.892,21.563c-0.08,0.019-0.163,0.046-0.244,0.072
		c-0.002-0.039-0.008-0.07-0.018-0.102C21.717,21.543,21.801,21.555,21.892,21.563 M19.126,43.313
		c-1.235-0.672-0.695-1.797-0.695-1.797c-0.58-0.181-1.272,0.99-1.272,0.99c-0.035-0.032-0.07-0.056-0.104-0.086
		c-3.921-6.462-5.357-11.656-5.356-15.304c0-1.55,0.256-2.82,0.684-3.798c0.429-0.977,1.028-1.657,1.715-2.042
		c1.122-0.621,1.905-0.83,2.603-0.83c0.405,0,0.784,0.071,1.19,0.181c0.607,0.165,1.271,0.415,2.141,0.625
		c0.322,0.079,0.677,0.147,1.062,0.208c-0.029,0.056-0.051,0.117-0.051,0.183c0,0.064,0.019,0.119,0.041,0.169
		c-0.08,0.029-0.16,0.059-0.241,0.091c-0.012-0.181-0.14-0.326-0.301-0.326c-0.167,0-0.303,0.156-0.303,0.352
		c0,0.083,0.028,0.156,0.07,0.22c-0.079,0.042-0.155,0.089-0.229,0.139c-0.029-0.161-0.146-0.285-0.293-0.285
		c-0.167,0-0.304,0.158-0.304,0.354c0,0.12,0.055,0.221,0.133,0.285c-0.078,0.067-0.154,0.137-0.229,0.212
		c-0.051-0.114-0.149-0.194-0.267-0.194c-0.167,0-0.303,0.161-0.303,0.356c0,0.135,0.068,0.249,0.164,0.31
		c-0.051,0.066-0.102,0.134-0.151,0.205c-0.055-0.073-0.134-0.12-0.224-0.12c-0.167,0-0.303,0.16-0.303,0.354
		c0,0.146,0.075,0.273,0.184,0.327c-0.045,0.083-0.088,0.168-0.131,0.258c-0.053-0.054-0.12-0.091-0.197-0.091
		c-0.168,0-0.304,0.157-0.304,0.353c0,0.168,0.102,0.299,0.235,0.338c-0.038,0.094-0.075,0.191-0.109,0.29
		c-0.049-0.039-0.104-0.066-0.167-0.066c-0.168,0-0.304,0.156-0.304,0.353c0,0.183,0.119,0.326,0.271,0.344
		c-0.026,0.096-0.054,0.189-0.078,0.283c-0.002,0.01-0.002,0.02-0.006,0.028c-0.044-0.03-0.093-0.051-0.147-0.051
		c-0.167,0-0.305,0.16-0.305,0.354c0,0.195,0.137,0.353,0.305,0.353c0.002,0,0.004,0,0.006,0c-0.024,0.109-0.046,0.218-0.066,0.329
		c-0.038-0.018-0.077-0.029-0.121-0.029c-0.168,0-0.303,0.158-0.303,0.354c0,0.196,0.135,0.355,0.303,0.355
		c0.007,0,0.015-0.007,0.024-0.007c-0.013,0.104-0.028,0.206-0.038,0.312c-0.024-0.008-0.05-0.018-0.076-0.018
		c-0.168,0-0.304,0.158-0.304,0.353c0,0.195,0.135,0.354,0.304,0.354c0.007,0,0.013-0.004,0.019-0.004
		c-0.006,0.103-0.014,0.205-0.019,0.31c-0.026-0.006-0.05-0.017-0.077-0.017c-0.167,0-0.304,0.157-0.304,0.355
		c0,0.193,0.136,0.353,0.304,0.353c0.022,0,0.04-0.009,0.059-0.013c-0.002,0.092-0.008,0.184-0.008,0.276
		c0,0.022,0,0.048,0.002,0.068c-0.02-0.004-0.039-0.013-0.059-0.013c-0.168,0-0.306,0.159-0.306,0.354
		c0,0.193,0.138,0.352,0.306,0.352c0.026,0,0.049-0.008,0.073-0.016c0.005,0.115,0.009,0.237,0.015,0.355
		c-0.018-0.004-0.032-0.012-0.05-0.012c-0.167,0-0.305,0.155-0.305,0.354c0,0.196,0.137,0.354,0.305,0.354
		c0.033,0,0.064-0.01,0.096-0.023c0.009,0.126,0.02,0.25,0.032,0.378c-0.006-0.002-0.013-0.007-0.02-0.007
		c-0.168,0-0.305,0.159-0.305,0.353c0,0.196,0.137,0.356,0.305,0.356c0.033,0,0.065-0.01,0.096-0.023
		c0.015,0.11,0.032,0.223,0.047,0.333c-0.012-0.001-0.022-0.007-0.035-0.007c-0.167,0-0.304,0.158-0.304,0.353
		c0,0.197,0.136,0.355,0.304,0.355c0.051,0,0.097-0.021,0.137-0.043c0.019,0.112,0.042,0.224,0.062,0.336
		c-0.161,0.01-0.291,0.161-0.291,0.353c0,0.195,0.137,0.353,0.304,0.353c0.043,0,0.085-0.01,0.123-0.029
		c0.027,0.126,0.059,0.252,0.09,0.381c-0.165,0.005-0.297,0.158-0.297,0.354c0,0.192,0.136,0.353,0.304,0.353
		c0.057,0,0.108-0.024,0.154-0.058c0.031,0.119,0.068,0.233,0.102,0.35c-0.141,0.031-0.25,0.168-0.25,0.342
		c0,0.197,0.135,0.355,0.304,0.355c0.05,0,0.097-0.02,0.139-0.048c0.039,0.12,0.083,0.231,0.123,0.349
		c-0.139,0.033-0.245,0.17-0.245,0.34c0,0.194,0.136,0.354,0.303,0.354c0.062,0,0.117-0.027,0.165-0.063
		c0.042,0.109,0.083,0.218,0.127,0.325c-0.127,0.044-0.221,0.175-0.221,0.336c0,0.196,0.135,0.354,0.303,0.354
		c0.07,0,0.131-0.033,0.184-0.078c0.042,0.094,0.085,0.19,0.13,0.285c-0.119,0.047-0.207,0.175-0.207,0.328
		c0,0.196,0.136,0.354,0.303,0.354c0.079,0,0.149-0.036,0.204-0.092c0.046,0.087,0.095,0.179,0.145,0.266
		c-0.111,0.053-0.19,0.181-0.19,0.326c0,0.195,0.137,0.354,0.305,0.354c0.09,0,0.167-0.048,0.223-0.116
		c0.057,0.089,0.113,0.176,0.174,0.265c-0.102,0.058-0.174,0.177-0.174,0.314c0,0.196,0.137,0.354,0.305,0.354
		c0.101,0,0.185-0.06,0.24-0.148c0.062,0.08,0.125,0.158,0.188,0.235c-0.094,0.062-0.16,0.175-0.16,0.306
		c0,0.198,0.137,0.355,0.304,0.355c0.118,0,0.216-0.08,0.267-0.191c0.077,0.079,0.15,0.156,0.228,0.233
		c-0.08,0.061-0.136,0.166-0.136,0.287c0,0.193,0.136,0.352,0.304,0.352c0.133,0,0.245-0.1,0.285-0.238
		c0.099,0.08,0.2,0.158,0.302,0.232C21.14,43.456,19.853,43.711,19.126,43.313 M29.175,40.869c0.146-0.481,0.238-0.998,0.272-1.535
		l0.016-0.238l0.007-0.095l-0.084,0.01l-0.203,0.022c-0.556,0.066-1.017,0.203-1.329,0.315v-1.229
		c0.414,0.17,0.858,0.276,1.32,0.317l0.204,0.017l0.083,0.009l-0.009-0.096l-0.02-0.237c-0.055-0.647-0.173-1.187-0.271-1.547h1.059
		c-0.148,0.482-0.239,0.999-0.274,1.536l-0.015,0.237l-0.007,0.095l0.083-0.008l0.203-0.023c0.557-0.063,1.018-0.201,1.33-0.315
		v1.23c-0.415-0.169-0.858-0.276-1.32-0.317l-0.205-0.016l-0.082-0.01l0.008,0.096l0.02,0.238c0.055,0.647,0.172,1.185,0.271,1.544
		H29.175z M36.259,42.168l-0.033-0.064c-0.113-0.742,0.628-1.463,1.13-0.925c0.004,0.173,0.014,0.354-0.087,0.405
		c0.544,0.155,0.854-0.424,0.741-0.965c-0.134-0.631-1.069-0.675-1.352-0.152c0.109-0.962-0.211-1.845-0.697-2.281
		c-0.55,0.377-0.924,1.22-0.74,2.281c-0.202-0.107-0.268-0.306-0.438-0.353c-1.041-0.294-1.357,1.431-0.304,1.521
		c0.192,0.012-0.134-0.319,0.044-0.457c0.438-0.384,1.105-0.054,0.959,0.761c-0.9,0.508-2.846,1.24-4.636-0.506
		c0,0-0.317-1.423-0.369-1.822c0.427,0.07,0.832,0.2,1.204,0.394l0.242,0.123l0.098,0.052v-0.123v-2.655v-0.122l-0.096,0.048
		l-0.24,0.12l-0.016,0.007c-0.04,0.019-0.179,0.082-0.403,0.157c-0.262,0.091-0.533,0.158-0.81,0.206
		c0.059-0.495,0.172-0.967,0.34-1.403l0.105-0.281l0.042-0.112h-0.105H28.56h-0.106l0.042,0.111l0.103,0.28
		c0,0.002,0.065,0.178,0.142,0.485c0.077,0.307,0.136,0.623,0.176,0.943c-0.425-0.068-0.83-0.199-1.206-0.394l-0.241-0.123
		l-0.096-0.051v0.124v2.654v0.119l0.096-0.047l0.239-0.116L27.722,40c0.038-0.016,0.18-0.084,0.406-0.158
		c0.262-0.09,0.533-0.158,0.808-0.206c-0.058,0.494-0.421,1.798-0.421,1.798c-1.769,1.723-3.686,1.034-4.599,0.526l-0.012-0.021
		c-0.147-0.814,0.521-1.145,0.958-0.761c0.178,0.138-0.149,0.469,0.044,0.457c1.055-0.091,0.737-1.815-0.306-1.521
		c-0.168,0.047-0.232,0.245-0.435,0.353c0.184-1.062-0.189-1.904-0.741-2.281c-0.486,0.437-0.807,1.319-0.696,2.281
		c-0.284-0.522-1.218-0.479-1.351,0.152c-0.114,0.541,0.195,1.12,0.739,0.965c-0.101-0.052-0.089-0.232-0.087-0.405
		c0.5-0.536,1.238,0.176,1.13,0.915c-0.17,0.236-0.432,0.467-0.745,0.666c-1.481-0.994-2.68-2.848-3.515-5.062
		c-0.883-2.337-1.36-5.075-1.36-7.599c0-1.84,0.254-3.567,0.784-4.942c0.265-0.689,0.597-1.289,0.998-1.772
		c0.402-0.486,0.873-0.857,1.418-1.088c0.979-0.418,1.896-0.586,2.739-0.586c1.86,0,3.379,0.824,4.434,1.651
		c0.528,0.414,0.938,0.826,1.217,1.139c0.138,0.153,0.244,0.282,0.315,0.37c0.036,0.047,0.062,0.081,0.078,0.105
		c0.009,0.009,0.016,0.019,0.021,0.024c0.001,0.003,0.004,0.005,0.006,0.007c0,0.002,0,0.002,0,0.002l0.109,0.128l0.11-0.128
		c0,0,0,0,0.001-0.002c0.03-0.043,0.631-0.869,1.684-1.685c1.054-0.813,2.553-1.612,4.385-1.612c0.843,0,1.76,0.168,2.739,0.586
		c0.545,0.231,1.014,0.603,1.418,1.088c0.603,0.725,1.048,1.712,1.344,2.863c0.295,1.154,0.438,2.47,0.438,3.851
		c0,2.523-0.478,5.262-1.359,7.599c-0.832,2.207-2.021,4.051-3.493,5.05C36.654,42.571,36.424,42.373,36.259,42.168 M42.224,42.489
		c-0.006,0.007-0.013,0.012-0.021,0.018c0,0-0.693-1.171-1.272-0.99c0,0,0.541,1.125-0.696,1.797
		c-0.732,0.402-2.036,0.139-3.007-0.387c0.097-0.07,0.191-0.144,0.284-0.221c0.043,0.139,0.152,0.238,0.285,0.238
		c0.167,0,0.304-0.158,0.304-0.352c0-0.121-0.056-0.227-0.137-0.289c0.078-0.075,0.153-0.152,0.229-0.231
		c0.051,0.111,0.15,0.191,0.268,0.191c0.167,0,0.303-0.157,0.303-0.355c0-0.131-0.066-0.244-0.16-0.306
		c0.064-0.077,0.127-0.155,0.188-0.235c0.055,0.089,0.142,0.148,0.24,0.148c0.168,0,0.305-0.158,0.305-0.354
		c0-0.138-0.071-0.257-0.172-0.314c0.058-0.089,0.115-0.176,0.172-0.265c0.056,0.068,0.134,0.116,0.225,0.116
		c0.165,0,0.303-0.159,0.303-0.354c0-0.146-0.079-0.273-0.19-0.326c0.05-0.087,0.099-0.179,0.146-0.266
		c0.055,0.056,0.125,0.092,0.205,0.092c0.167,0,0.301-0.158,0.301-0.354c0-0.153-0.086-0.281-0.205-0.328
		c0.045-0.095,0.088-0.191,0.131-0.285c0.052,0.045,0.113,0.078,0.184,0.078c0.168,0,0.305-0.157,0.305-0.354
		c0-0.161-0.097-0.292-0.226-0.336c0.045-0.107,0.089-0.216,0.13-0.325c0.048,0.036,0.103,0.063,0.164,0.063
		c0.169,0,0.305-0.16,0.305-0.354c0-0.17-0.106-0.307-0.245-0.34c0.04-0.117,0.083-0.229,0.121-0.349
		c0.044,0.028,0.088,0.048,0.14,0.048c0.17,0,0.306-0.158,0.306-0.355c0-0.174-0.109-0.311-0.25-0.342
		c0.032-0.116,0.069-0.23,0.102-0.35c0.047,0.033,0.097,0.058,0.152,0.058c0.169,0,0.305-0.16,0.305-0.353
		c0-0.195-0.133-0.349-0.297-0.354c0.03-0.129,0.062-0.255,0.089-0.381c0.038,0.02,0.08,0.029,0.122,0.029
		c0.168,0,0.305-0.157,0.305-0.353c0-0.191-0.13-0.343-0.291-0.353c0.021-0.11,0.042-0.224,0.062-0.336
		c0.042,0.022,0.088,0.043,0.139,0.043c0.166,0,0.303-0.158,0.303-0.355c0-0.194-0.137-0.353-0.303-0.353
		c-0.014,0-0.023,0.006-0.035,0.007c0.016-0.11,0.033-0.223,0.046-0.333c0.031,0.014,0.063,0.023,0.097,0.023
		c0.169,0,0.304-0.16,0.304-0.356c0-0.193-0.135-0.353-0.304-0.353c-0.006,0-0.012,0.005-0.02,0.007
		c0.013-0.128,0.025-0.252,0.033-0.378c0.032,0.014,0.062,0.023,0.098,0.023c0.166,0,0.303-0.157,0.303-0.354
		c0-0.198-0.137-0.354-0.303-0.354c-0.02,0-0.033,0.008-0.052,0.012c0.008-0.118,0.012-0.24,0.015-0.355
		c0.023,0.008,0.048,0.016,0.074,0.016c0.167,0,0.304-0.158,0.304-0.352c0-0.195-0.137-0.354-0.304-0.354
		c-0.021,0-0.039,0.009-0.059,0.013c0-0.021,0.002-0.046,0.002-0.068c0-0.093-0.004-0.185-0.004-0.276
		c0.018,0.004,0.034,0.013,0.054,0.013c0.169,0,0.304-0.159,0.304-0.353c0-0.198-0.135-0.355-0.304-0.355
		c-0.026,0-0.052,0.011-0.075,0.017c-0.007-0.103-0.011-0.207-0.018-0.31c0.006,0.002,0.011,0.004,0.017,0.004
		c0.167,0,0.303-0.158,0.303-0.354c0-0.195-0.136-0.353-0.303-0.353c-0.027,0-0.051,0.01-0.075,0.018
		c-0.01-0.106-0.024-0.208-0.036-0.312c0.007,0.003,0.013,0.007,0.021,0.007c0.168,0,0.304-0.159,0.304-0.355
		c0-0.197-0.136-0.354-0.304-0.354c-0.044,0-0.082,0.011-0.122,0.029c-0.018-0.108-0.037-0.22-0.06-0.329c0,0,0,0,0.001,0
		c0.168,0,0.304-0.158,0.304-0.353c0-0.194-0.136-0.354-0.304-0.354c-0.054,0-0.102,0.021-0.146,0.05
		c-0.026-0.103-0.057-0.207-0.087-0.31c0.154-0.017,0.274-0.162,0.274-0.344c0-0.196-0.137-0.353-0.304-0.353
		c-0.065,0-0.121,0.027-0.171,0.068c-0.027-0.074-0.048-0.15-0.079-0.222c-0.008-0.024-0.019-0.045-0.027-0.069
		c0.131-0.04,0.235-0.17,0.235-0.338c0-0.196-0.137-0.353-0.305-0.353c-0.078,0-0.146,0.037-0.199,0.091
		c-0.043-0.087-0.086-0.175-0.13-0.258c0.107-0.054,0.186-0.18,0.186-0.327c0-0.193-0.136-0.354-0.303-0.354
		c-0.091,0-0.17,0.047-0.225,0.12c-0.049-0.073-0.103-0.136-0.154-0.205c0.098-0.059,0.167-0.174,0.167-0.31
		c0-0.195-0.137-0.356-0.304-0.356c-0.116,0-0.216,0.08-0.266,0.194c-0.076-0.075-0.15-0.145-0.229-0.212
		c0.079-0.064,0.133-0.165,0.133-0.285c0-0.196-0.137-0.354-0.302-0.354c-0.149,0-0.267,0.124-0.294,0.285
		c-0.075-0.05-0.15-0.097-0.23-0.139c0.042-0.063,0.07-0.136,0.07-0.22c0-0.196-0.137-0.352-0.303-0.352
		c-0.16,0-0.288,0.145-0.302,0.326c-0.079-0.032-0.161-0.062-0.239-0.091c0.024-0.05,0.04-0.105,0.04-0.169
		c0-0.066-0.021-0.127-0.049-0.18c0.734-0.114,1.339-0.272,1.867-0.43c0.5-0.149,0.93-0.297,1.335-0.406
		c0.405-0.109,0.784-0.181,1.189-0.181c0.697,0,1.48,0.209,2.602,0.83c0.689,0.385,1.286,1.065,1.715,2.042
		c0.428,0.978,0.685,2.248,0.685,3.798C47.622,30.777,46.177,35.996,42.224,42.489"/>
</g>
</svg>
