<?xml version="1.0" encoding="utf-8"?>
<!-- Generator: Adobe Illustrator 16.0.0, SVG Export Plug-In . SVG Version: 6.00 Build 0)  -->
<!DOCTYPE svg PUBLIC "-//W3C//DTD SVG 1.1//EN" "http://www.w3.org/Graphics/SVG/1.1/DTD/svg11.dtd">
<svg version="1.1" id="Ebene_1" xmlns="http://www.w3.org/2000/svg" xmlns:xlink="http://www.w3.org/1999/xlink" x="0px" y="0px"
	 width="358.482px" height="506.975px" viewBox="0 0 358.482 506.975" enable-background="new 0 0 358.482 506.975"
	 xml:space="preserve">
<path fill="#E2CDBF" d="M106.095,384.134c9.807,17.162,20.021,36.367,46.172,47.806c0,0,20.214,65.216,31.874,66.198
	c77.637,6.538,162.627-5.723,162.627-5.723s-9.807-71.915-5.721-88.26s14.331-29.387,9.808-82.541
	c-6.539-76.82-30.627-125.176-32.689-130.757c-9.997-27.047-24.839-45.095-36.624-46.997c-4.594-0.741-9.72,0.474-15.679,3.683
	c-11.536,6.211-4.903,31.055-4.903,31.055s-9.732-40.997-30.236-48.487c-4.111-1.501-20.577-0.466-25.061,6.538
	c-8.719,13.62-0.275,47.67-0.275,47.67s-6.938-51.729-22.608-57.477c-32.689-11.986-39.228,15.254-39.228,15.254
	c-0.918,19.266,7.082,64.288,7.082,64.288l-16.346-76.82c0,0-4.086-19.614-9.806-35.958c-5.722-16.344-19.614-53.12-27.786-76.002
	C88.522-5.278,52.564,2.895,55.016,29.863c2.452,26.969,14.71,71.099,14.71,71.099s4.903,35.958,9.807,51.485
	s21.248,120.133,21.248,120.133s-25.914-59.78-50.124-85.264c-20.703-21.792-43.858-6.266-42.224-2.18s67.83,148.736,67.83,148.736
	L106.095,384.134z"/>
<path fill="#D3BDAF" d="M99.148,270.13c4.495-13.076-13.893-123.674-13.893-123.674c-11.237-25.879-14.915-64.494-14.915-64.494
	C56.652,54.994,58.51,14.198,58.083,15.154c-1.43,3.201-3.594,7.786-3.133,12.871c2.452,26.969,14.231,70.758,14.231,70.758
	s4.904,35.958,9.807,51.485c4.903,15.527,21.248,120.133,21.248,120.133L99.148,270.13z"/>
<path fill="#FFEADC" d="M65.642,15.153c0,0,6.537-13.62,23.972-4.903c0,0,6.644,21.868,5.993,25.607
	c-1.089,6.266-18.795,12.26-23.154,2.453C68.094,28.503,65.642,15.153,65.642,15.153z"/>
<path fill="#FFFBF8" d="M65.642,15.153c0,0,6.809-13.894,23.972-4.903l0.818,4.087c0,0-13.894-10.624-23.973,4.086L65.642,15.153z"
	/>
<path fill="#D3BDAF" d="M148.932,132.154l0.067,65.515c0,0-6.685-47.695-5.448-55.572
	C144.096,138.624,148.932,132.154,148.932,132.154z"/>
<path fill="#D3BDAF" d="M208.453,133.908l-5.874,34.375c0,0-1.992-14.608,0.29-24.687
	C204.728,135.39,208.453,133.908,208.453,133.908z"/>
<path fill="#D3BDAF" d="M263.958,148.908l-3.542,26.696c0,0-2.802-7.863-1.089-17.962
	C260.416,151.223,263.958,148.908,263.958,148.908z"/>
<path fill="#FFEADC" d="M8.844,186.058c0,0,5.025-4.185,12.211-1.737c7.198,2.452,10.467,21.861,10.467,21.861
	c-2.656,3.882-10.828,6.129-10.828,6.129L8.844,186.058z"/>
<path fill="#FFFBF8" d="M8.844,186.058c0,0,5.44-4.623,13.28-1.251l1.813,1.532l-14.148,1.762L8.844,186.058z"/>
<path fill="#D3BDAF" d="M107.321,386.79c0,0-6.656-19.727-1.634-13.484c15.118,18.796,42.362,54.3,62.651,51.688l15.803,73.145
	c-14.983-2.996-31.058-64.699-28.604-64.154C155.536,433.983,125.025,421.928,107.321,386.79z"/>
<path fill="#D3BDAF" d="M20.694,212.311c0,0,10.215,20.227,14.301,23.496c4.086,3.269,11.441,37.184,16.753,42.087
	s25.334,32.281,29.42,38.41c4.086,6.128,30.237,71.099,30.237,71.099l-5.517-3.882L75.857,332.24L20.694,212.311z"/>
</svg>
