<?xml version="1.0" encoding="utf-8"?>
<!-- Generator: Adobe Illustrator 16.0.0, SVG Export Plug-In . SVG Version: 6.00 Build 0)  -->
<!DOCTYPE svg PUBLIC "-//W3C//DTD SVG 1.1//EN" "http://www.w3.org/Graphics/SVG/1.1/DTD/svg11.dtd">
<svg version="1.1" id="Ebene_1" xmlns="http://www.w3.org/2000/svg" xmlns:xlink="http://www.w3.org/1999/xlink" x="0px" y="0px"
	 width="308.001px" height="72.667px" viewBox="0 0 308.001 72.667" enable-background="new 0 0 308.001 72.667"
	 xml:space="preserve">
<g id="Install-Textfeld">
	<text transform="matrix(1 0 0 1 75.1426 57.3662)" fill="#FFFFFF" font-family="'ArialMT'" font-size="24">Update installieren</text>
	<text transform="matrix(1 0 0 1 76.6709 29.6699)" fill="#B3B2B2" font-family="'ArialMT'" font-size="16.8296">ChessClub Pro (1.2.1)</text>
	<g>
		<defs>
			<rect id="SVGID_1_" x="20.402" y="16.667" width="37.836" height="40.478"/>
		</defs>
		<clipPath id="SVGID_2_">
			<use xlink:href="#SVGID_1_"  overflow="visible"/>
		</clipPath>
		<path clip-path="url(#SVGID_2_)" fill="#FFFFFF" d="M57.91,36.157c0.169,0,0.309-0.161,0.309-0.359
			c0-0.198-0.139-0.359-0.309-0.359c-0.017,0-0.033,0.009-0.048,0.011c0.005-0.112,0.005-0.219,0.007-0.328
			c0.02,0.004,0.039,0.012,0.059,0.012c0.17,0,0.31-0.161,0.31-0.359c0-0.198-0.139-0.358-0.31-0.358
			c-0.02,0-0.037,0.009-0.055,0.013c-0.003-0.114-0.004-0.225-0.01-0.334c0.011,0,0.02,0.008,0.031,0.008
			c0.171,0,0.309-0.162,0.309-0.36c0-0.198-0.137-0.36-0.309-0.36c-0.028,0-0.056,0.012-0.083,0.021
			c-0.014-0.121-0.026-0.243-0.04-0.36c0.169,0,0.308-0.162,0.308-0.36s-0.139-0.359-0.309-0.359c-0.042,0-0.082,0.012-0.119,0.029
			c-0.023-0.118-0.045-0.234-0.074-0.347c0.158-0.015,0.285-0.166,0.285-0.352c0-0.202-0.138-0.363-0.309-0.363
			c-0.062,0-0.117,0.026-0.164,0.062c-0.041-0.121-0.082-0.239-0.126-0.352c0.144-0.033,0.252-0.173,0.252-0.347
			c0-0.199-0.138-0.362-0.309-0.362c-0.083,0-0.156,0.04-0.211,0.101c-0.044-0.09-0.093-0.175-0.142-0.257
			c0.125-0.048,0.217-0.178,0.217-0.34c0-0.198-0.14-0.359-0.311-0.359c-0.107,0-0.197,0.067-0.253,0.166
			c-0.066-0.089-0.133-0.178-0.202-0.258c0.089-0.063,0.152-0.172,0.152-0.302c0-0.199-0.138-0.36-0.31-0.36
			c-0.128,0-0.237,0.091-0.285,0.22c-0.077-0.065-0.155-0.129-0.236-0.187c0.064-0.066,0.107-0.16,0.107-0.269
			c0-0.197-0.138-0.359-0.31-0.359c-0.157,0-0.283,0.142-0.3,0.319c-0.094-0.051-0.19-0.102-0.278-0.147
			c0.04-0.061,0.068-0.132,0.068-0.215c0-0.198-0.14-0.359-0.309-0.359c-0.161,0-0.289,0.143-0.305,0.326
			c-0.094-0.04-0.188-0.078-0.279-0.11c0.025-0.052,0.045-0.111,0.045-0.176c0-0.199-0.138-0.36-0.31-0.36
			c-0.169,0-0.307,0.162-0.308,0.36c-0.092-0.024-0.182-0.042-0.269-0.057c0.01-0.037,0.02-0.077,0.02-0.118
			c0-0.198-0.137-0.359-0.309-0.359c-0.17,0-0.31,0.161-0.31,0.359c0,0.02,0.007,0.037,0.011,0.057
			c-0.033,0-0.065-0.004-0.097-0.004c-0.065,0-0.128,0.006-0.192,0.008c0.006-0.031,0.017-0.062,0.017-0.096
			c0-0.199-0.137-0.36-0.309-0.36s-0.308,0.161-0.308,0.36c0,0.059,0.014,0.113,0.037,0.163c-0.103,0.017-0.206,0.039-0.306,0.063
			c0.002-0.021,0.009-0.037,0.009-0.059c0-0.199-0.138-0.359-0.309-0.359c-0.17,0-0.309,0.161-0.309,0.359
			c0,0.081,0.026,0.149,0.063,0.208c-0.102,0.031-0.205,0.061-0.309,0.098c0-0.002,0.001-0.002,0.001-0.006
			c0-0.198-0.139-0.359-0.311-0.359c-0.169,0-0.308,0.162-0.308,0.359c0,0.068,0.019,0.127,0.048,0.181
			c-0.101,0.031-0.203,0.062-0.308,0.092c0-0.001,0.002-0.006,0.002-0.009c0-0.198-0.139-0.359-0.31-0.359
			c-0.169,0-0.309,0.162-0.309,0.359c0,0.062,0.016,0.116,0.038,0.166c-0.026,0.004-0.049,0.011-0.075,0.017
			c-0.077,0.02-0.156,0.039-0.236,0.055c0.001-0.013,0.006-0.023,0.006-0.038c0-0.197-0.138-0.359-0.31-0.359
			c-0.171,0-0.309,0.162-0.309,0.359c0,0.055,0.012,0.105,0.031,0.153c-0.085,0.015-0.168,0.028-0.257,0.043
			c0.003-0.02,0.011-0.041,0.011-0.063c0-0.197-0.139-0.359-0.311-0.359c-0.169,0-0.309,0.162-0.309,0.359
			c0,0.05,0.009,0.097,0.024,0.139c-0.102,0.01-0.204,0.021-0.309,0.029c0.005-0.028,0.015-0.057,0.015-0.086
			c0-0.198-0.138-0.36-0.31-0.36c-0.169,0-0.309,0.162-0.309,0.36c0,0.045,0.01,0.086,0.021,0.126
			c-0.101,0.003-0.203,0.01-0.309,0.012c0.01-0.036,0.019-0.076,0.019-0.115c0-0.2-0.139-0.362-0.31-0.362s-0.309,0.162-0.309,0.362
			c0,0.044,0.01,0.083,0.022,0.123c-0.099,0-0.193-0.002-0.288-0.005c0.015-0.04,0.024-0.086,0.024-0.132
			c0-0.201-0.139-0.361-0.309-0.361c-0.172,0-0.31,0.16-0.31,0.361c0,0.037,0.008,0.071,0.019,0.106
			c-0.105-0.009-0.208-0.018-0.31-0.029c0.017-0.041,0.026-0.089,0.026-0.139c0-0.201-0.139-0.359-0.309-0.359
			c-0.172,0-0.311,0.159-0.311,0.359c0,0.023,0.01,0.046,0.014,0.069c-0.097-0.015-0.188-0.03-0.281-0.048
			c0.026-0.052,0.042-0.107,0.042-0.171c0-0.199-0.138-0.36-0.309-0.36c-0.169,0-0.308,0.161-0.308,0.36
			c0,0.019,0.005,0.032,0.007,0.05c-0.111-0.029-0.22-0.056-0.323-0.09c0.024-0.05,0.043-0.108,0.043-0.171
			c0-0.201-0.138-0.361-0.311-0.361c-0.163,0-0.294,0.151-0.304,0.34c-0.102-0.042-0.201-0.083-0.296-0.127
			c0.034-0.057,0.056-0.122,0.056-0.196c0-0.198-0.138-0.359-0.309-0.359c-0.145,0-0.26,0.118-0.293,0.275
			c-0.112-0.065-0.217-0.134-0.315-0.201c0.061-0.065,0.1-0.157,0.1-0.265c0-0.198-0.138-0.358-0.309-0.358
			c-0.131,0-0.242,0.098-0.288,0.234c-0.069-0.062-0.131-0.125-0.19-0.186c0.084-0.064,0.143-0.171,0.143-0.297
			c0-0.198-0.139-0.36-0.308-0.36c-0.106,0-0.196,0.065-0.251,0.162c-0.081-0.117-0.152-0.226-0.206-0.32
			c-0.006-0.012-0.009-0.02-0.015-0.031c0.94-0.175,1.66-1.121,1.66-2.267c0-0.705-0.275-1.336-0.706-1.759h0.046l-0.044-0.114
			l-0.104-0.286c0-0.002-0.065-0.175-0.144-0.493c-0.054-0.217-0.127-0.551-0.18-0.958c0.433,0.068,0.845,0.204,1.226,0.398
			l0.245,0.127l0.101,0.053v-0.126v-2.699v-0.125l-0.099,0.048l-0.245,0.12c-0.001,0.003-0.155,0.079-0.424,0.169
			c-0.267,0.089-0.543,0.162-0.823,0.21c0.06-0.504,0.175-0.982,0.344-1.427l0.107-0.287l0.044-0.115h-0.109h-2.315h-0.108
			l0.043,0.113l0.103,0.281l0.002,0.008c0.021,0.058,0.077,0.228,0.142,0.491c0.055,0.215,0.128,0.553,0.181,0.957
			c-0.433-0.067-0.844-0.201-1.226-0.397l-0.245-0.128l-0.1-0.05v0.127v2.696v0.125l0.098-0.047l0.216-0.113l0.017-0.002
			l0.013-0.008c0.051-0.023,0.194-0.089,0.422-0.168c0.267-0.087,0.543-0.161,0.823-0.208c-0.059,0.505-0.174,0.984-0.342,1.427
			l-0.11,0.286l-0.021,0.059c-0.468,0.42-0.771,1.076-0.771,1.817c0,1.137,0.709,2.079,1.64,2.261
			c-0.055,0.107-0.127,0.225-0.22,0.356c-0.055-0.097-0.145-0.162-0.25-0.162c-0.171,0-0.309,0.162-0.309,0.36
			c0,0.126,0.059,0.232,0.144,0.299c-0.058,0.059-0.125,0.119-0.192,0.181c-0.046-0.134-0.156-0.231-0.288-0.231
			c-0.17,0-0.309,0.161-0.309,0.358c0,0.108,0.04,0.2,0.102,0.265c-0.099,0.067-0.204,0.136-0.315,0.201
			c-0.034-0.157-0.149-0.275-0.294-0.275c-0.172,0-0.31,0.161-0.31,0.359c0,0.075,0.023,0.139,0.058,0.196
			c-0.096,0.044-0.194,0.085-0.296,0.127c-0.011-0.189-0.142-0.34-0.306-0.34c-0.171,0-0.309,0.161-0.309,0.361
			c0,0.063,0.018,0.12,0.042,0.171c-0.104,0.031-0.211,0.061-0.323,0.09c0.002-0.018,0.009-0.033,0.009-0.05
			c0-0.199-0.139-0.36-0.309-0.36c-0.172,0-0.309,0.161-0.309,0.36c0,0.064,0.016,0.119,0.042,0.171
			c-0.092,0.018-0.184,0.035-0.28,0.048c0.004-0.023,0.013-0.046,0.013-0.069c0-0.201-0.14-0.359-0.311-0.359
			c-0.17,0-0.31,0.159-0.31,0.359c0,0.05,0.009,0.098,0.026,0.139c-0.102,0.011-0.204,0.022-0.31,0.029
			c0.01-0.036,0.02-0.07,0.02-0.106c0-0.201-0.139-0.361-0.311-0.361c-0.169,0-0.309,0.16-0.309,0.361
			c0,0.046,0.008,0.092,0.024,0.132c-0.095,0.003-0.189,0.005-0.288,0.005c0.013-0.04,0.022-0.079,0.022-0.123
			c0-0.2-0.138-0.362-0.31-0.362c-0.17,0-0.308,0.162-0.308,0.362c0,0.039,0.007,0.077,0.02,0.113
			c-0.105-0.001-0.211-0.007-0.31-0.01c0.011-0.04,0.021-0.081,0.021-0.126c0-0.198-0.139-0.36-0.31-0.36
			c-0.169,0-0.309,0.162-0.309,0.36c0,0.03,0.009,0.059,0.015,0.086c-0.105-0.009-0.208-0.019-0.31-0.029
			c0.015-0.042,0.024-0.09,0.024-0.139c0-0.197-0.139-0.359-0.309-0.359c-0.171,0-0.311,0.162-0.311,0.359
			c0,0.022,0.008,0.04,0.012,0.062c-0.087-0.013-0.173-0.028-0.257-0.042c0.018-0.047,0.031-0.098,0.031-0.153
			c0-0.197-0.14-0.359-0.31-0.359c-0.171,0-0.31,0.162-0.31,0.359c0,0.015,0.005,0.024,0.005,0.038
			c-0.104-0.023-0.21-0.047-0.31-0.073c0.022-0.049,0.038-0.103,0.038-0.165c0-0.198-0.139-0.359-0.308-0.359
			c-0.171,0-0.31,0.162-0.31,0.359c0,0.003,0.001,0.008,0.001,0.009c-0.05-0.016-0.104-0.03-0.153-0.044
			c-0.052-0.017-0.102-0.032-0.154-0.048c0.028-0.054,0.048-0.112,0.048-0.181c0-0.198-0.14-0.359-0.309-0.359
			c-0.171,0-0.309,0.162-0.309,0.359c0,0.004,0,0.004,0,0.006c-0.104-0.037-0.208-0.067-0.309-0.1
			c0.036-0.058,0.062-0.127,0.062-0.207c0-0.199-0.139-0.359-0.309-0.359c-0.17,0-0.309,0.161-0.309,0.359
			c0,0.022,0.007,0.039,0.009,0.059c-0.101-0.024-0.204-0.046-0.306-0.063c0.022-0.05,0.037-0.104,0.037-0.163
			c0-0.199-0.14-0.36-0.309-0.36c-0.172,0-0.31,0.161-0.31,0.36c0,0.034,0.01,0.064,0.017,0.096
			c-0.064-0.002-0.128-0.008-0.191-0.008c-0.032,0-0.064,0.004-0.096,0.004c0.002-0.02,0.01-0.037,0.01-0.057
			c0-0.198-0.139-0.359-0.31-0.359c-0.17,0-0.31,0.161-0.31,0.359c0,0.042,0.01,0.082,0.021,0.118
			c-0.088,0.015-0.178,0.033-0.27,0.057c0-0.199-0.138-0.36-0.309-0.36c-0.17,0-0.309,0.162-0.309,0.36
			c0,0.065,0.019,0.124,0.043,0.176c-0.09,0.032-0.184,0.071-0.278,0.11c-0.016-0.184-0.143-0.326-0.304-0.326
			c-0.17,0-0.308,0.162-0.308,0.359c0,0.083,0.026,0.155,0.065,0.215c-0.088,0.045-0.183,0.096-0.276,0.147
			c-0.019-0.179-0.143-0.319-0.301-0.319c-0.17,0-0.309,0.162-0.309,0.359c0,0.109,0.042,0.203,0.106,0.271
			c-0.079,0.056-0.158,0.119-0.235,0.185c-0.048-0.129-0.157-0.22-0.285-0.22c-0.172,0-0.312,0.161-0.312,0.36
			c0,0.13,0.064,0.239,0.154,0.302c-0.069,0.08-0.136,0.169-0.203,0.258c-0.054-0.099-0.144-0.166-0.252-0.166
			c-0.17,0-0.309,0.161-0.309,0.359c0,0.162,0.09,0.292,0.216,0.34c-0.05,0.082-0.096,0.167-0.142,0.257
			c-0.056-0.061-0.127-0.101-0.21-0.101c-0.171,0-0.308,0.164-0.308,0.362c0,0.174,0.108,0.313,0.25,0.347
			c-0.043,0.113-0.085,0.231-0.125,0.352c-0.048-0.037-0.102-0.062-0.165-0.062c-0.169,0-0.309,0.161-0.309,0.363
			c0,0.186,0.127,0.337,0.286,0.352c-0.026,0.112-0.051,0.229-0.074,0.347c-0.037-0.018-0.077-0.029-0.118-0.029
			c-0.171,0-0.309,0.161-0.309,0.359s0.138,0.36,0.308,0.36c-0.015,0.117-0.026,0.239-0.039,0.36
			c-0.028-0.01-0.055-0.021-0.083-0.021c-0.17,0-0.309,0.163-0.309,0.36c0,0.199,0.139,0.36,0.309,0.36
			c0.01,0,0.02-0.008,0.03-0.008c-0.004,0.11-0.005,0.22-0.007,0.334c-0.019-0.004-0.037-0.013-0.057-0.013
			c-0.17,0-0.309,0.161-0.309,0.358c0,0.199,0.138,0.359,0.309,0.359c0.021,0,0.04-0.008,0.06-0.012
			c0.002,0.109,0.002,0.216,0.007,0.328c-0.015-0.002-0.03-0.011-0.047-0.011c-0.17,0-0.309,0.162-0.309,0.359
			c0,0.199,0.139,0.359,0.309,0.359c0.033,0,0.065-0.01,0.096-0.022c0.008,0.088,0.015,0.175,0.025,0.264
			c-0.012-0.002-0.023-0.008-0.037-0.008c-0.169,0-0.309,0.161-0.309,0.359s0.14,0.36,0.309,0.36c0.042,0,0.081-0.009,0.117-0.026
			c0.016,0.109,0.037,0.224,0.054,0.336c-0.002,0-0.004,0-0.006,0c-0.171,0-0.31,0.161-0.31,0.359c0,0.199,0.139,0.36,0.31,0.36
			c0.044,0,0.085-0.011,0.123-0.031c0.015,0.083,0.032,0.166,0.049,0.249c-0.168,0.005-0.305,0.162-0.305,0.359
			c0,0.199,0.139,0.359,0.309,0.359c0.051,0,0.097-0.017,0.139-0.044c0.022,0.101,0.049,0.201,0.074,0.304
			c-0.156,0.017-0.28,0.166-0.28,0.354c0,0.199,0.137,0.359,0.31,0.359c0.05,0,0.097-0.021,0.139-0.046
			c0.027,0.103,0.058,0.203,0.086,0.305c-0.146,0.028-0.261,0.168-0.261,0.348c0,0.199,0.139,0.359,0.309,0.359
			c0.055,0,0.102-0.019,0.146-0.047c0.029,0.087,0.057,0.176,0.085,0.263c-0.14,0.037-0.245,0.173-0.245,0.347
			c0,0.197,0.139,0.357,0.31,0.357c0.055,0,0.105-0.021,0.15-0.051c0.03,0.091,0.064,0.188,0.098,0.278
			c-0.148,0.028-0.264,0.169-0.264,0.351c0,0.198,0.14,0.359,0.312,0.359c0.068,0,0.128-0.032,0.18-0.077
			c0.032,0.087,0.068,0.176,0.101,0.261c-0.128,0.045-0.225,0.176-0.225,0.34c0,0.197,0.139,0.358,0.309,0.358
			c0.063,0,0.117-0.025,0.166-0.063c0.035,0.092,0.073,0.18,0.11,0.269c-0.135,0.038-0.237,0.175-0.237,0.343
			c0,0.197,0.137,0.359,0.309,0.359c0.073,0,0.139-0.033,0.191-0.084c0.031,0.073,0.061,0.142,0.093,0.217
			c-0.123,0.048-0.214,0.18-0.214,0.338c0,0.197,0.138,0.359,0.309,0.359c0.072,0,0.136-0.033,0.188-0.081
			c0.035,0.077,0.069,0.152,0.105,0.229c-0.125,0.049-0.216,0.179-0.216,0.338c0,0.198,0.14,0.36,0.309,0.36
			c0.077,0,0.143-0.036,0.197-0.088c0.03,0.064,0.064,0.128,0.096,0.192c-0.122,0.047-0.209,0.178-0.209,0.335
			c0,0.198,0.138,0.359,0.309,0.359c0.078,0,0.146-0.034,0.2-0.089c0.03,0.057,0.056,0.112,0.087,0.171
			c-0.106,0.058-0.185,0.182-0.185,0.327c0,0.2,0.14,0.362,0.311,0.362c0.075,0,0.141-0.038,0.194-0.087
			c0.032,0.059,0.061,0.114,0.093,0.174c-0.119,0.054-0.205,0.181-0.205,0.335c0,0.199,0.14,0.362,0.31,0.362
			c0.084,0,0.161-0.041,0.215-0.105c0.027,0.05,0.057,0.1,0.084,0.149c-0.108,0.055-0.184,0.182-0.184,0.326
			c0,0.199,0.14,0.359,0.31,0.359c0.082,0,0.153-0.037,0.208-0.095c0.03,0.047,0.056,0.095,0.084,0.145
			c-0.101,0.06-0.176,0.179-0.176,0.323c0,0.009,0.005,0.018,0.005,0.027c-0.904-0.168-1.741,0.192-1.741,0.192
			c2.941,1.28,2.908,3.994,2.873,4.512c-0.005,0.029-0.006,0.058-0.006,0.085c0,1.401,5.691,2.536,12.714,2.536
			c7.019,0,12.71-1.135,12.714-2.534l0.039-0.002c0,0-0.391-3.18,2.866-4.597c0,0-0.863-0.37-1.785-0.183
			c0.002-0.014,0.007-0.024,0.007-0.037c0-0.145-0.072-0.264-0.176-0.323c0.028-0.05,0.055-0.098,0.083-0.147
			c0.054,0.061,0.128,0.098,0.208,0.098c0.171,0,0.31-0.16,0.31-0.359c0-0.145-0.077-0.271-0.185-0.327
			c0.029-0.049,0.057-0.099,0.084-0.148c0.056,0.064,0.131,0.105,0.217,0.105c0.169,0,0.309-0.163,0.309-0.362
			c0-0.154-0.086-0.281-0.205-0.335c0.033-0.06,0.062-0.115,0.094-0.174c0.054,0.049,0.119,0.087,0.193,0.087
			c0.172,0,0.31-0.162,0.31-0.362c0-0.146-0.078-0.27-0.184-0.327c0.03-0.059,0.057-0.114,0.087-0.171
			c0.053,0.055,0.122,0.089,0.198,0.089c0.172,0,0.31-0.161,0.31-0.359c0-0.157-0.086-0.288-0.207-0.335
			c0.03-0.064,0.064-0.128,0.094-0.192c0.055,0.052,0.122,0.088,0.196,0.088c0.171,0,0.309-0.162,0.309-0.36
			c0-0.159-0.091-0.289-0.215-0.338c0.037-0.076,0.071-0.151,0.105-0.229c0.052,0.048,0.117,0.081,0.188,0.081
			c0.169,0,0.31-0.162,0.31-0.359c0-0.158-0.093-0.29-0.216-0.338c0.032-0.075,0.062-0.144,0.092-0.217
			c0.053,0.051,0.119,0.084,0.194,0.084c0.17,0,0.308-0.162,0.308-0.359c0-0.168-0.102-0.305-0.236-0.346
			c0.037-0.086,0.074-0.174,0.108-0.266c0.049,0.038,0.104,0.063,0.166,0.063c0.17,0,0.31-0.161,0.31-0.358
			c0-0.164-0.097-0.295-0.226-0.34c0.033-0.085,0.069-0.174,0.101-0.261c0.051,0.045,0.111,0.077,0.18,0.077
			c0.173,0,0.31-0.161,0.31-0.359c0-0.182-0.114-0.322-0.263-0.351c0.033-0.091,0.068-0.188,0.1-0.28
			c0.044,0.032,0.093,0.053,0.148,0.053c0.171,0,0.31-0.16,0.31-0.357c0-0.174-0.106-0.31-0.246-0.347
			c0.028-0.087,0.06-0.176,0.086-0.263c0.043,0.026,0.093,0.047,0.145,0.047c0.17,0,0.309-0.161,0.309-0.359
			c0-0.18-0.114-0.319-0.261-0.348c0.029-0.103,0.06-0.203,0.085-0.305c0.045,0.025,0.09,0.046,0.141,0.046
			c0.172,0,0.31-0.161,0.31-0.359c0-0.188-0.123-0.336-0.279-0.354c0.024-0.103,0.05-0.203,0.073-0.304
			c0.041,0.027,0.088,0.044,0.139,0.044c0.17,0,0.31-0.161,0.31-0.359c0-0.198-0.137-0.354-0.305-0.359
			c0.017-0.083,0.034-0.166,0.05-0.249c0.038,0.02,0.079,0.031,0.124,0.031c0.169,0,0.308-0.161,0.308-0.36
			c0-0.198-0.139-0.359-0.308-0.359c-0.004,0-0.005,0-0.007,0c0.018-0.112,0.04-0.227,0.054-0.336
			c0.036,0.018,0.076,0.026,0.117,0.026c0.17,0,0.309-0.162,0.309-0.36s-0.138-0.359-0.309-0.359c-0.013,0-0.025,0.006-0.037,0.008
			c0.01-0.089,0.017-0.176,0.026-0.264C57.844,36.146,57.875,36.157,57.91,36.157 M47.486,29.053
			c-0.01,0.03-0.018,0.066-0.018,0.101c-0.084-0.025-0.167-0.053-0.25-0.073C47.311,29.073,47.397,29.061,47.486,29.053
			 M38.846,21.599c0.15-0.492,0.242-1.017,0.278-1.562l0.015-0.242l0.007-0.098l-0.084,0.011l-0.207,0.025
			c-0.566,0.063-1.034,0.205-1.351,0.319V18.8c0.421,0.175,0.873,0.284,1.343,0.325l0.208,0.019l0.082,0.006l-0.007-0.097
			l-0.021-0.242c-0.056-0.658-0.175-1.205-0.276-1.574h1.077c-0.15,0.494-0.243,1.018-0.279,1.562l-0.014,0.243l-0.007,0.096
			l0.084-0.01l0.206-0.023c0.567-0.066,1.035-0.205,1.353-0.321v1.251c-0.423-0.173-0.874-0.282-1.342-0.324l-0.209-0.017
			l-0.083-0.007l0.008,0.099l0.019,0.24c0.057,0.66,0.176,1.204,0.276,1.572H38.846z M31.42,29.081
			c-0.082,0.02-0.166,0.047-0.248,0.073c-0.002-0.039-0.008-0.071-0.019-0.103C31.243,29.061,31.328,29.073,31.42,29.081
			 M28.608,51.199c-1.256-0.684-0.707-1.827-0.707-1.827c-0.589-0.184-1.294,1.007-1.294,1.007
			c-0.035-0.033-0.071-0.057-0.106-0.088c-3.987-6.57-5.447-11.853-5.446-15.562c0-1.576,0.261-2.868,0.695-3.862
			c0.436-0.993,1.045-1.685,1.744-2.077c1.141-0.631,1.937-0.844,2.646-0.844c0.412,0,0.797,0.073,1.21,0.184
			c0.617,0.167,1.292,0.422,2.177,0.636c0.327,0.08,0.688,0.15,1.08,0.211c-0.029,0.057-0.051,0.119-0.051,0.186
			c0,0.065,0.019,0.121,0.042,0.172c-0.081,0.03-0.162,0.06-0.245,0.092c-0.013-0.185-0.142-0.332-0.306-0.332
			c-0.169,0-0.308,0.159-0.308,0.358c0,0.085,0.028,0.159,0.071,0.223c-0.08,0.042-0.157,0.09-0.233,0.141
			c-0.029-0.164-0.148-0.29-0.298-0.29c-0.17,0-0.309,0.161-0.309,0.359c0,0.122,0.056,0.225,0.135,0.29
			c-0.079,0.069-0.157,0.14-0.232,0.216c-0.052-0.116-0.151-0.197-0.271-0.197c-0.169,0-0.308,0.163-0.308,0.362
			c0,0.138,0.069,0.253,0.167,0.315c-0.052,0.067-0.104,0.136-0.154,0.208c-0.056-0.074-0.137-0.122-0.228-0.122
			c-0.17,0-0.308,0.163-0.308,0.359c0,0.149,0.076,0.278,0.187,0.333c-0.045,0.084-0.09,0.17-0.133,0.262
			c-0.054-0.055-0.122-0.092-0.201-0.092c-0.171,0-0.31,0.16-0.31,0.359c0,0.17,0.104,0.304,0.239,0.344
			c-0.039,0.096-0.076,0.195-0.111,0.294c-0.05-0.039-0.106-0.067-0.17-0.067c-0.171,0-0.31,0.159-0.31,0.358
			c0,0.186,0.121,0.332,0.276,0.35c-0.027,0.097-0.055,0.193-0.08,0.288c-0.002,0.01-0.002,0.021-0.006,0.029
			c-0.045-0.031-0.094-0.052-0.149-0.052c-0.17,0-0.31,0.163-0.31,0.36c0,0.198,0.14,0.359,0.31,0.359c0.002,0,0.004,0,0.006,0
			c-0.024,0.111-0.047,0.222-0.067,0.334c-0.039-0.019-0.079-0.03-0.123-0.03c-0.171,0-0.308,0.161-0.308,0.36
			s0.137,0.361,0.308,0.361c0.008,0,0.016-0.008,0.024-0.008c-0.013,0.105-0.028,0.209-0.039,0.317
			c-0.025-0.008-0.051-0.018-0.078-0.018c-0.171,0-0.309,0.161-0.309,0.359c0,0.199,0.137,0.359,0.309,0.359
			c0.007,0,0.013-0.004,0.019-0.004c-0.006,0.105-0.014,0.208-0.02,0.315c-0.026-0.006-0.051-0.018-0.078-0.018
			c-0.17,0-0.309,0.16-0.309,0.36c0,0.197,0.139,0.359,0.309,0.359c0.022,0,0.041-0.009,0.06-0.013
			c-0.002,0.094-0.008,0.188-0.008,0.281c0,0.023,0,0.048,0.002,0.069c-0.02-0.004-0.039-0.013-0.06-0.013
			c-0.17,0-0.311,0.162-0.311,0.361c0,0.196,0.14,0.358,0.311,0.358c0.026,0,0.05-0.009,0.075-0.016
			c0.005,0.117,0.009,0.241,0.015,0.36c-0.018-0.004-0.032-0.011-0.05-0.011c-0.17,0-0.31,0.159-0.31,0.359
			c0,0.199,0.14,0.359,0.31,0.359c0.033,0,0.065-0.01,0.098-0.024c0.009,0.128,0.021,0.254,0.033,0.384
			c-0.006-0.002-0.013-0.007-0.02-0.007c-0.17,0-0.31,0.162-0.31,0.358c0,0.201,0.139,0.362,0.31,0.362
			c0.034,0,0.067-0.01,0.098-0.024c0.015,0.113,0.033,0.228,0.048,0.339c-0.012-0.001-0.022-0.007-0.035-0.007
			c-0.17,0-0.309,0.161-0.309,0.358c0,0.2,0.138,0.361,0.309,0.361c0.052,0,0.099-0.021,0.139-0.044
			c0.02,0.114,0.042,0.228,0.063,0.342c-0.164,0.01-0.296,0.164-0.296,0.358c0,0.198,0.139,0.358,0.31,0.358
			c0.044,0,0.087-0.01,0.125-0.029c0.028,0.128,0.06,0.256,0.091,0.387c-0.168,0.005-0.302,0.161-0.302,0.359
			c0,0.196,0.138,0.359,0.309,0.359c0.058,0,0.11-0.025,0.157-0.059c0.031,0.121,0.069,0.237,0.103,0.355
			c-0.143,0.031-0.254,0.17-0.254,0.347c0,0.201,0.137,0.362,0.31,0.362c0.051,0,0.099-0.021,0.142-0.049
			c0.04,0.122,0.084,0.235,0.125,0.354c-0.142,0.033-0.25,0.173-0.25,0.346c0,0.197,0.139,0.36,0.309,0.36
			c0.063,0,0.119-0.028,0.168-0.064c0.042,0.111,0.084,0.222,0.129,0.33c-0.129,0.045-0.225,0.178-0.225,0.342
			c0,0.2,0.138,0.359,0.309,0.359c0.071,0,0.133-0.033,0.187-0.079c0.043,0.096,0.087,0.193,0.133,0.29
			c-0.121,0.048-0.21,0.178-0.21,0.334c0,0.199,0.138,0.36,0.308,0.36c0.08,0,0.151-0.037,0.208-0.094
			c0.047,0.089,0.097,0.182,0.147,0.271c-0.113,0.054-0.193,0.184-0.193,0.332c0,0.198,0.139,0.36,0.31,0.36
			c0.091,0,0.17-0.049,0.227-0.118c0.058,0.09,0.115,0.179,0.177,0.269c-0.104,0.059-0.177,0.18-0.177,0.32
			c0,0.199,0.14,0.36,0.311,0.36c0.102,0,0.188-0.061,0.244-0.151c0.062,0.082,0.127,0.161,0.19,0.239
			c-0.095,0.062-0.162,0.178-0.162,0.312c0,0.201,0.139,0.361,0.309,0.361c0.12,0,0.22-0.082,0.271-0.195
			c0.078,0.081,0.153,0.159,0.232,0.238c-0.082,0.062-0.138,0.168-0.138,0.291c0,0.197,0.138,0.358,0.309,0.358
			c0.136,0,0.249-0.102,0.29-0.243c0.101,0.082,0.204,0.161,0.308,0.236C30.656,51.344,29.347,51.604,28.608,51.199 M38.828,48.714
			c0.148-0.49,0.242-1.016,0.277-1.562l0.016-0.242l0.007-0.097l-0.085,0.01l-0.206,0.023c-0.565,0.067-1.034,0.206-1.351,0.32
			v-1.25c0.421,0.173,0.873,0.281,1.343,0.322l0.208,0.018l0.084,0.009l-0.009-0.098l-0.02-0.241
			c-0.056-0.658-0.176-1.206-0.276-1.573h1.077c-0.151,0.491-0.243,1.017-0.279,1.562l-0.015,0.241l-0.007,0.097l0.084-0.008
			l0.207-0.024c0.566-0.064,1.036-0.204,1.352-0.32v1.251c-0.422-0.172-0.874-0.281-1.343-0.323l-0.208-0.016l-0.083-0.01
			l0.008,0.098l0.021,0.242c0.056,0.658,0.175,1.204,0.275,1.57H38.828z M46.031,50.034l-0.033-0.065
			c-0.116-0.755,0.638-1.487,1.148-0.94c0.004,0.176,0.014,0.359-0.088,0.412c0.553,0.158,0.868-0.431,0.753-0.981
			c-0.136-0.642-1.086-0.686-1.375-0.154c0.112-0.979-0.214-1.876-0.709-2.32c-0.559,0.384-0.939,1.24-0.752,2.32
			c-0.205-0.109-0.271-0.312-0.444-0.358c-1.059-0.3-1.382,1.454-0.31,1.547c0.196,0.012-0.136-0.325,0.045-0.465
			c0.446-0.391,1.124-0.055,0.976,0.773c-0.916,0.517-2.895,1.262-4.716-0.515c0,0-0.322-1.446-0.375-1.853
			c0.434,0.071,0.846,0.203,1.224,0.4l0.247,0.125l0.1,0.053v-0.125v-2.701v-0.124l-0.099,0.049l-0.244,0.122l-0.016,0.007
			c-0.041,0.02-0.181,0.084-0.409,0.16c-0.267,0.093-0.543,0.161-0.824,0.21c0.059-0.504,0.175-0.983,0.345-1.428l0.108-0.285
			l0.043-0.114h-0.108h-2.318h-0.108l0.042,0.112l0.105,0.285c0,0.002,0.066,0.181,0.145,0.494c0.078,0.312,0.138,0.634,0.179,0.959
			c-0.433-0.069-0.844-0.202-1.226-0.4l-0.245-0.125l-0.098-0.052v0.126v2.699v0.122l0.098-0.048l0.243-0.118l0.013-0.008
			c0.039-0.017,0.184-0.086,0.413-0.161c0.267-0.092,0.542-0.161,0.821-0.21c-0.059,0.503-0.428,1.828-0.428,1.828
			c-1.798,1.752-3.749,1.052-4.677,0.536l-0.012-0.021c-0.149-0.828,0.53-1.164,0.975-0.773c0.181,0.14-0.152,0.477,0.045,0.465
			c1.073-0.093,0.75-1.847-0.312-1.547c-0.171,0.047-0.236,0.249-0.442,0.358c0.187-1.08-0.193-1.937-0.754-2.32
			c-0.494,0.444-0.82,1.342-0.708,2.32c-0.289-0.531-1.238-0.487-1.374,0.154c-0.116,0.551,0.198,1.14,0.752,0.981
			c-0.102-0.053-0.091-0.236-0.088-0.412c0.508-0.545,1.259,0.179,1.149,0.931c-0.173,0.24-0.439,0.475-0.758,0.677
			c-1.506-1.011-2.725-2.896-3.574-5.147c-0.898-2.377-1.384-5.161-1.384-7.728c0-1.872,0.259-3.627,0.798-5.026
			c0.269-0.7,0.606-1.31,1.015-1.802c0.409-0.494,0.888-0.872,1.442-1.107c0.995-0.425,1.928-0.596,2.786-0.596
			c1.892,0,3.437,0.838,4.509,1.679c0.537,0.421,0.954,0.84,1.238,1.158c0.14,0.156,0.248,0.286,0.32,0.376
			c0.036,0.047,0.062,0.082,0.08,0.106c0.009,0.01,0.016,0.019,0.021,0.025c0.002,0.003,0.005,0.005,0.006,0.007
			c0,0.002,0,0.002,0,0.002l0.111,0.13l0.112-0.13c0,0,0,0,0.001-0.002c0.03-0.044,0.643-0.883,1.713-1.713
			c1.072-0.827,2.596-1.639,4.459-1.639c0.858,0,1.789,0.171,2.786,0.596c0.554,0.235,1.031,0.613,1.442,1.107
			c0.612,0.737,1.066,1.741,1.366,2.912c0.3,1.173,0.446,2.512,0.446,3.917c0,2.566-0.486,5.351-1.383,7.728
			c-0.846,2.244-2.056,4.119-3.552,5.135C46.433,50.444,46.199,50.243,46.031,50.034 M52.098,50.361
			c-0.007,0.007-0.015,0.012-0.022,0.018c0,0-0.705-1.19-1.293-1.007c0,0,0.55,1.144-0.708,1.827
			c-0.745,0.409-2.07,0.141-3.058-0.394c0.098-0.071,0.195-0.146,0.289-0.225c0.044,0.142,0.154,0.243,0.29,0.243
			c0.171,0,0.309-0.161,0.309-0.358c0-0.123-0.056-0.229-0.138-0.294c0.079-0.076,0.155-0.154,0.231-0.235
			c0.052,0.113,0.153,0.195,0.271,0.195c0.171,0,0.309-0.16,0.309-0.361c0-0.134-0.067-0.249-0.163-0.312
			c0.065-0.078,0.129-0.157,0.191-0.239c0.056,0.091,0.143,0.151,0.244,0.151c0.171,0,0.31-0.161,0.31-0.36
			c0-0.141-0.072-0.262-0.175-0.32c0.059-0.09,0.117-0.179,0.175-0.269c0.057,0.069,0.137,0.118,0.228,0.118
			c0.169,0,0.309-0.162,0.309-0.36c0-0.148-0.081-0.278-0.194-0.332c0.051-0.089,0.101-0.182,0.148-0.271
			c0.056,0.057,0.127,0.094,0.208,0.094c0.17,0,0.308-0.161,0.308-0.36c0-0.156-0.089-0.286-0.209-0.334
			c0.045-0.097,0.089-0.194,0.133-0.29c0.053,0.046,0.115,0.079,0.187,0.079c0.17,0,0.31-0.159,0.31-0.359
			c0-0.164-0.099-0.297-0.229-0.342c0.045-0.108,0.089-0.219,0.131-0.33c0.049,0.036,0.104,0.064,0.167,0.064
			c0.172,0,0.31-0.163,0.31-0.36c0-0.173-0.109-0.312-0.25-0.346c0.042-0.119,0.085-0.232,0.124-0.354
			c0.044,0.028,0.09,0.049,0.143,0.049c0.171,0,0.31-0.161,0.31-0.362c0-0.177-0.111-0.315-0.254-0.347
			c0.033-0.118,0.071-0.234,0.104-0.355c0.047,0.033,0.099,0.059,0.155,0.059c0.171,0,0.31-0.163,0.31-0.359
			c0-0.198-0.135-0.354-0.301-0.359c0.03-0.131,0.062-0.259,0.09-0.387c0.038,0.02,0.081,0.029,0.125,0.029
			c0.17,0,0.309-0.16,0.309-0.358c0-0.194-0.132-0.349-0.295-0.358c0.021-0.112,0.043-0.228,0.062-0.342
			c0.042,0.023,0.089,0.044,0.14,0.044c0.169,0,0.31-0.161,0.31-0.361c0-0.198-0.14-0.358-0.31-0.358
			c-0.013,0-0.023,0.006-0.035,0.007c0.016-0.112,0.034-0.227,0.047-0.339c0.031,0.014,0.064,0.024,0.098,0.024
			c0.172,0,0.309-0.162,0.309-0.362c0-0.197-0.137-0.358-0.309-0.358c-0.007,0-0.012,0.005-0.02,0.007
			c0.012-0.13,0.024-0.256,0.033-0.384c0.033,0.014,0.064,0.024,0.099,0.024c0.169,0,0.308-0.16,0.308-0.359
			c0-0.201-0.139-0.359-0.308-0.359c-0.019,0-0.033,0.007-0.052,0.011c0.008-0.12,0.011-0.243,0.015-0.36
			c0.024,0.007,0.048,0.016,0.075,0.016c0.17,0,0.309-0.162,0.309-0.358c0-0.199-0.139-0.361-0.309-0.361
			c-0.021,0-0.04,0.009-0.06,0.013c0-0.021,0.001-0.046,0.001-0.069c0-0.094-0.004-0.188-0.004-0.281
			c0.018,0.004,0.035,0.013,0.055,0.013c0.172,0,0.309-0.162,0.309-0.359c0-0.2-0.137-0.36-0.309-0.36
			c-0.027,0-0.052,0.012-0.077,0.018c-0.006-0.105-0.011-0.21-0.018-0.315c0.006,0.002,0.011,0.004,0.017,0.004
			c0.17,0,0.309-0.161,0.309-0.359c0-0.198-0.139-0.359-0.309-0.359c-0.027,0-0.052,0.01-0.077,0.018
			c-0.009-0.108-0.024-0.212-0.037-0.317c0.008,0.004,0.014,0.008,0.022,0.008c0.17,0,0.308-0.162,0.308-0.361
			s-0.137-0.36-0.308-0.36c-0.045,0-0.085,0.011-0.125,0.03c-0.019-0.11-0.038-0.224-0.061-0.334c0,0,0,0,0.001,0
			c0.17,0,0.309-0.161,0.309-0.359c0-0.197-0.138-0.36-0.309-0.36c-0.055,0-0.104,0.021-0.15,0.051
			c-0.026-0.105-0.058-0.21-0.088-0.315c0.156-0.017,0.279-0.164,0.279-0.35c0-0.2-0.139-0.358-0.309-0.358
			c-0.067,0-0.124,0.028-0.174,0.069c-0.027-0.075-0.05-0.153-0.08-0.226c-0.008-0.025-0.02-0.046-0.029-0.071
			c0.134-0.04,0.239-0.173,0.239-0.344c0-0.2-0.139-0.359-0.31-0.359c-0.079,0-0.148,0.038-0.202,0.092
			c-0.044-0.089-0.088-0.178-0.134-0.262c0.11-0.055,0.189-0.184,0.189-0.333c0-0.197-0.138-0.359-0.309-0.359
			c-0.092,0-0.172,0.048-0.228,0.122c-0.049-0.074-0.103-0.139-0.156-0.208c0.1-0.06,0.17-0.177,0.17-0.315
			c0-0.199-0.14-0.362-0.31-0.362c-0.118,0-0.219,0.081-0.27,0.197c-0.077-0.076-0.154-0.147-0.234-0.216
			c0.08-0.065,0.135-0.167,0.135-0.29c0-0.199-0.139-0.359-0.307-0.359c-0.152,0-0.271,0.126-0.298,0.29
			c-0.077-0.051-0.153-0.099-0.235-0.141c0.043-0.064,0.072-0.138,0.072-0.223c0-0.2-0.139-0.358-0.308-0.358
			c-0.163,0-0.293,0.147-0.306,0.332c-0.081-0.033-0.164-0.062-0.244-0.092c0.025-0.051,0.041-0.107,0.041-0.172
			c0-0.067-0.021-0.129-0.05-0.183c0.747-0.116,1.363-0.277,1.899-0.437c0.508-0.152,0.946-0.303,1.358-0.413
			c0.411-0.111,0.797-0.184,1.209-0.184c0.709,0,1.505,0.213,2.646,0.844c0.7,0.392,1.308,1.083,1.743,2.077
			c0.436,0.994,0.696,2.286,0.696,3.862C57.587,38.451,56.117,43.758,52.098,50.361"/>
	</g>
</g>
</svg>
