<?xml version="1.0" encoding="utf-8"?>
<!-- Generator: Adobe Illustrator 15.0.0, SVG Export Plug-In . SVG Version: 6.00 Build 0)  -->
<!DOCTYPE svg PUBLIC "-//W3C//DTD SVG 1.1//EN" "http://www.w3.org/Graphics/SVG/1.1/DTD/svg11.dtd">
<svg version="1.1" xmlns="http://www.w3.org/2000/svg" xmlns:xlink="http://www.w3.org/1999/xlink" x="0px" y="0px" width="59px"
	 height="59px" viewBox="0 0 59 59" enable-background="new 0 0 59 59" xml:space="preserve">
<g id="Ebene_1" display="none">
	<g id="Mail_1_" display="inline">
		<path fill="#2581C4" d="M59,51.058C59,55.443,55.443,59,51.058,59H7.942C3.557,59,0,55.443,0,51.058V7.942
			C0,3.557,3.557,0,7.942,0h43.115C55.443,0,59,3.557,59,7.942V51.058z"/>
		<circle fill="none" stroke="#FFFFFF" stroke-width="4" stroke-miterlimit="10" cx="29.5" cy="29.5" r="16.167"/>
		<g>
			<path fill="#FFFFFF" d="M21.334,16.667c-5.334-0.333-3.667,4.333-3,6.667c0,1.333,1.333,8.333,4,9C28,34,24.334,28,25.667,25.667
				c1.667-3.667,7-0.667,8.333-4C31,21,29,21.334,26.334,20C24,19,24,16.667,21,17"/>
			<g>
				<path fill="#FFFFFF" d="M21.957,16.258c-4.065-0.039-6.008,1.811-4.991,5.922c0.808,3.267,0.885,9.105,4.578,10.539
					c1.292,0.502,2.87,0.414,4.076-0.25c1.326-0.729,0.978-2.511,0.837-3.749c-0.11-0.96-0.225-1.887,0.001-2.841
					c0.502-2.123,3.038-1.817,4.586-2.071c1.655-0.271,3.087-0.758,3.911-2.305c0.063-0.119-0.067-0.202-0.163-0.221
					c-3.135-0.604-6.695-0.451-9.163-2.769c-1.421-1.334-2.207-1.979-4.215-1.921c-0.535,0.016-2.111,0.852-0.827,0.814
					c2.21-0.065,3.829,2.483,5.811,3.354c0.904,0.397,1.888,0.551,2.854,0.707c0.361,0.053,0.723,0.1,1.085,0.139
					c0.597,0.079,1.194,0.157,1.792,0.236c-0.333,0.945-0.917,1.375-1.756,1.291c-2.656,0.201-5.666,0.927-5.982,4.05
					c-0.16,1.583,0.557,3.16,0.124,4.731c-0.432,1.568-3.006-1.417-3.128-1.605c-0.615-0.947-0.961-2.087-1.296-3.153
					c-0.465-1.481-0.49-3.053-0.917-4.517c-0.56-1.924-1.695-5.596,1.538-5.564C21.136,17.08,22.922,16.267,21.957,16.258
					L21.957,16.258z"/>
			</g>
		</g>
		<g>
			<path fill="#FFFFFF" d="M24,32.334c3,3,0.667,9.333,4.334,9.666c0.666-5.333,5-11-3.334-10"/>
			<g>
				<path fill="#FFFFFF" d="M23.103,32.713c1.627,1.801,1.626,4.272,1.964,6.546c0.247,1.657,0.915,2.992,2.676,3.269
					c0.425,0.066,1.476-0.073,1.557-0.647c0.384-2.704,1.807-5.353,1.708-8.104c-0.102-2.812-4.007-2.507-5.877-2.313
					c-0.945,0.098-1.601,1.215-0.262,1.076c2.714-0.28,4.61,0.184,4.071,3.19c-0.388,2.165-1.262,4.203-1.573,6.392
					c0.519-0.216,1.038-0.432,1.557-0.647c-1.981-0.312-1.959-2.875-2.148-4.438c-0.225-1.857-0.593-3.655-1.879-5.079
					C24.442,31.452,22.599,32.154,23.103,32.713L23.103,32.713z"/>
			</g>
		</g>
		<g>
			<path fill="#FFFFFF" d="M43,20.607c-2,0-8,5.393-7.666,8.06c0.333,0.667,8.693,4,9.693,5.333"/>
			<g>
				<path fill="#FFFFFF" d="M43.14,20.102c-3.508,0.371-8.262,4.881-8.778,8.332c-0.186,1.24,2.455,1.98,3.271,2.373
					c2.028,0.975,4.953,1.86,6.496,3.563c0.43,0.475,2.27-0.219,1.798-0.74c-1.926-2.126-5.591-3.147-8.105-4.388
					c-0.512-0.253-1.065-0.5-1.515-0.856c-0.497-0.396,0.857-2.34,1.087-2.677c1.026-1.51,3.492-4.387,5.467-4.596
					C43.777,21.016,44.483,19.96,43.14,20.102L43.14,20.102z"/>
			</g>
		</g>
	</g>
</g>
<g id="Ebene_2" display="none">
	<g id="SMSicon_2_" display="inline">
		<path fill="#00336A" d="M59,51.058C59,55.443,55.443,59,51.058,59H7.942C3.557,59,0,55.443,0,51.058V7.942
			C0,3.557,3.557,0,7.942,0h43.115C55.443,0,59,3.557,59,7.942V51.058z"/>
		<path fill="none" stroke="#FFFFFF" stroke-width="4" stroke-miterlimit="10" d="M29.425,16.439
			c-8.552,0-15.484,4.646-15.484,10.377c0,3.243,2.22,6.138,5.695,8.041l0.183,7.551l8.584-5.237
			c0.339,0.015,0.679,0.024,1.022,0.024c8.551,0,15.482-4.646,15.482-10.379C44.907,21.086,37.976,16.439,29.425,16.439z"/>
	</g>
</g>
<g id="Ebene_3">
	<g id="Musicapp_1_">
		<path fill="#AFCA0B" d="M59,51.158C59,55.489,55.489,59,51.158,59H7.842C3.511,59,0,55.489,0,51.158V7.842
			C0,3.511,3.511,0,7.842,0h43.316C55.489,0,59,3.511,59,7.842V51.158z"/>
		<path fill="none" stroke="#FFFFFF" stroke-width="3.5" stroke-miterlimit="10" d="M24.782,34.568
			c-5.826-7.523-8.694-16.066-3.955-19.737c0.573-0.444,1.44-0.512,2.142-0.781l4.317,6.639c0,0-0.989,0.799-1.321,1.056
			c-2.741,2.124-1.177,5.734,2.194,10.088c3.373,4.354,6.477,6.772,9.219,4.648c0.332-0.257,1.353-1.015,1.353-1.015l5.464,5.992
			c-0.437,0.61-0.718,1.433-1.291,1.877C38.164,47.006,30.608,42.092,24.782,34.568z"/>
	</g>
</g>
<g id="Ebene_4">
</g>
<g id="Ebene_5">
</g>
<g id="Ebene_6" display="none">
	<g id="Mail_4_" display="inline">
		<path fill="#791F2C" d="M59,51.058C59,55.443,55.443,59,51.058,59H7.942C3.557,59,0,55.443,0,51.058V7.942
			C0,3.557,3.557,0,7.942,0h43.115C55.443,0,59,3.557,59,7.942V51.058z"/>
		<rect x="15" y="19" fill="none" stroke="#FFFFFF" stroke-width="4" stroke-miterlimit="10" width="30" height="22"/>
		<polyline fill="none" stroke="#FFFFFF" stroke-width="3" stroke-miterlimit="10" points="15,19 30,30.346 45,19 		"/>
	</g>
</g>
</svg>
