<?xml version="1.0" encoding="utf-8"?>
<!-- Generator: Adobe Illustrator 16.0.0, SVG Export Plug-In . SVG Version: 6.00 Build 0)  -->
<!DOCTYPE svg PUBLIC "-//W3C//DTD SVG 1.1//EN" "http://www.w3.org/Graphics/SVG/1.1/DTD/svg11.dtd">
<svg version="1.1" id="Ebene_1" xmlns="http://www.w3.org/2000/svg" xmlns:xlink="http://www.w3.org/1999/xlink" x="0px" y="0px"
	 width="160.228px" height="328.41px" viewBox="0 0 160.228 328.41" enable-background="new 0 0 160.228 328.41"
	 xml:space="preserve">
<g id="Platine">
	<line fill="none" stroke="#E6E6E6" stroke-width="2" stroke-miterlimit="10" x1="89.318" y1="294.273" x2="97.318" y2="294.273"/>
	<line fill="none" stroke="#E6E6E6" stroke-width="2" stroke-miterlimit="10" x1="89.318" y1="290.273" x2="97.318" y2="290.273"/>
	<line fill="none" stroke="#E6E6E6" stroke-width="2" stroke-miterlimit="10" x1="45.318" y1="286.273" x2="97.318" y2="286.273"/>
	<line fill="none" stroke="#E6E6E6" stroke-width="2" stroke-miterlimit="10" x1="44.318" y1="302.273" x2="96.318" y2="302.273"/>
	<line fill="none" stroke="#E6E6E6" stroke-width="2" stroke-miterlimit="10" x1="44.318" y1="306.273" x2="96.318" y2="306.273"/>
	<line fill="none" stroke="#E6E6E6" stroke-width="2" stroke-miterlimit="10" x1="82.318" y1="282.273" x2="97.318" y2="282.273"/>
	<line fill="none" stroke="#E6E6E6" stroke-width="2" stroke-miterlimit="10" x1="89.318" y1="278.273" x2="97.318" y2="278.273"/>
	<line fill="none" stroke="#E6E6E6" stroke-width="2" stroke-miterlimit="10" x1="89.318" y1="274.273" x2="97.318" y2="274.273"/>
	<line fill="none" stroke="#E6E6E6" stroke-width="2" stroke-miterlimit="10" x1="89.318" y1="270.273" x2="97.318" y2="270.273"/>
	<line fill="none" stroke="#E6E6E6" stroke-width="2" stroke-miterlimit="10" x1="89.318" y1="266.273" x2="97.318" y2="266.273"/>
	<polyline fill="none" stroke="#E6E6E6" stroke-width="2" stroke-miterlimit="10" points="97.318,262.273 80.609,262.273 
		66.942,262.273 59.318,258.202 34.818,258.488 	"/>
	<line fill="none" stroke="#E6E6E6" stroke-width="2" stroke-miterlimit="10" x1="68.318" y1="258.273" x2="97.318" y2="258.273"/>
	<line fill="none" stroke="#E6E6E6" stroke-width="2" stroke-miterlimit="10" x1="35.318" y1="254.273" x2="97.318" y2="254.273"/>
	<line fill="none" stroke="#E6E6E6" stroke-width="2" stroke-miterlimit="10" x1="80.318" y1="250.273" x2="97.318" y2="250.273"/>
	<line fill="none" stroke="#E6E6E6" stroke-width="2" stroke-miterlimit="10" x1="89.318" y1="246.273" x2="97.318" y2="246.273"/>
	<line fill="none" stroke="#E6E6E6" stroke-width="2" stroke-miterlimit="10" x1="89.318" y1="242.273" x2="97.318" y2="242.273"/>
	<polyline fill="none" stroke="#E6E6E6" stroke-width="2" stroke-miterlimit="10" points="97.318,266.273 80.609,266.273 
		66.942,274.273 57.318,274.273 	"/>
	<polyline fill="none" stroke="#E6E6E6" stroke-width="2" stroke-miterlimit="10" points="97.318,270.273 80.609,270.273 
		66.942,278.273 44.318,278.273 	"/>
	<circle fill="#E6E6E6" cx="57.609" cy="273.839" r="1.833"/>
	<circle fill="#E6E6E6" cx="88.609" cy="273.839" r="1.833"/>
	<polyline fill="none" stroke="#E6E6E6" stroke-width="2" stroke-miterlimit="10" points="97.318,278.273 80.609,278.273 
		73.942,282.273 43.318,282.273 	"/>
	<circle fill="#E6E6E6" cx="82.609" cy="281.839" r="1.833"/>
	<circle fill="#E6E6E6" cx="88.609" cy="289.839" r="1.833"/>
	<polyline fill="none" stroke="#E6E6E6" stroke-width="2" stroke-miterlimit="10" points="97.318,294.273 80.609,294.273 
		73.942,290.273 51.318,290.273 	"/>
	<polyline fill="none" stroke="#E6E6E6" stroke-width="2" stroke-miterlimit="10" points="97.318,250.273 80.609,250.273 
		73.942,246.273 65.443,246.273 44.068,228.077 44.193,196.488 	"/>
	<circle fill="#E6E6E6" cx="88.609" cy="245.839" r="1.833"/>
	<circle fill="#E6E6E6" cx="44.609" cy="196.839" r="1.833"/>
	<circle fill="#E6E6E6" cx="68.609" cy="257.839" r="1.833"/>
	<circle fill="#E6E6E6" cx="43.609" cy="277.839" r="1.833"/>
	<circle fill="#E6E6E6" cx="44.609" cy="285.839" r="1.833"/>
	<circle fill="#E6E6E6" cx="51.609" cy="290.839" r="1.833"/>
	<polyline fill="none" stroke="#E6E6E6" stroke-width="2" stroke-miterlimit="10" points="96.318,298.273 79.609,298.273 
		72.942,294.273 50.318,294.273 	"/>
	<polyline fill="none" stroke="#E6E6E6" stroke-width="2" stroke-miterlimit="10" points="97.318,242.273 69.068,242.273 
		49.068,224.827 49.193,176.478 32.436,158.91 15.818,159.085 	"/>
	<polyline fill="none" stroke="#E6E6E6" stroke-width="2" stroke-miterlimit="10" points="97.318,238.273 72.609,238.273 
		66.649,233.272 	"/>
	<circle fill="#E6E6E6" cx="66.609" cy="232.839" r="1.833"/>
	<polyline fill="none" stroke="#E6E6E6" stroke-width="2" stroke-miterlimit="10" points="62.609,249.838 38.943,230.005 
		39.068,211.38 11.068,181.63 	"/>
	<circle fill="#E6E6E6" cx="62.609" cy="249.839" r="1.833"/>
	<polyline fill="none" stroke="#E6E6E6" stroke-width="2" stroke-miterlimit="10" points="54.401,249.797 33.943,233.005 
		34.068,214.38 6.068,184.63 	"/>
	<circle fill="#E6E6E6" cx="54.609" cy="249.839" r="1.833"/>
</g>
<rect x="69.318" y="92.273" fill="#999797" width="68" height="68"/>
<path fill="#666666" d="M133.318,151.87c0,2.432-1.971,4.403-4.402,4.403H77.721c-2.431,0-4.402-1.972-4.402-4.403v-51.193
	c0-2.432,1.971-4.403,4.402-4.403h51.195c2.432,0,4.402,1.972,4.402,4.403V151.87z"/>
<g>
	<line fill="none" stroke="#E6E6E6" stroke-width="2" stroke-miterlimit="10" x1="77.318" y1="158.273" x2="77.318" y2="166.273"/>
	<line fill="none" stroke="#E6E6E6" stroke-width="2" stroke-miterlimit="10" x1="81.318" y1="158.273" x2="81.318" y2="166.273"/>
	<line fill="none" stroke="#E6E6E6" stroke-width="2" stroke-miterlimit="10" x1="85.318" y1="158.273" x2="85.318" y2="166.273"/>
	<line fill="none" stroke="#E6E6E6" stroke-width="2" stroke-miterlimit="10" x1="89.318" y1="158.273" x2="89.318" y2="166.273"/>
	<line fill="none" stroke="#E6E6E6" stroke-width="2" stroke-miterlimit="10" x1="93.318" y1="158.273" x2="93.318" y2="166.273"/>
	<line fill="none" stroke="#E6E6E6" stroke-width="2" stroke-miterlimit="10" x1="97.318" y1="158.273" x2="97.318" y2="166.273"/>
	
		<line fill="none" stroke="#E6E6E6" stroke-width="2" stroke-miterlimit="10" x1="101.318" y1="158.273" x2="101.318" y2="166.273"/>
	
		<line fill="none" stroke="#E6E6E6" stroke-width="2" stroke-miterlimit="10" x1="105.318" y1="158.273" x2="105.318" y2="166.273"/>
	
		<line fill="none" stroke="#E6E6E6" stroke-width="2" stroke-miterlimit="10" x1="109.318" y1="158.273" x2="109.318" y2="166.273"/>
	
		<line fill="none" stroke="#E6E6E6" stroke-width="2" stroke-miterlimit="10" x1="113.318" y1="158.273" x2="113.318" y2="166.273"/>
	
		<line fill="none" stroke="#E6E6E6" stroke-width="2" stroke-miterlimit="10" x1="117.318" y1="158.273" x2="117.318" y2="166.273"/>
	
		<line fill="none" stroke="#E6E6E6" stroke-width="2" stroke-miterlimit="10" x1="121.318" y1="158.273" x2="121.318" y2="166.273"/>
	
		<line fill="none" stroke="#E6E6E6" stroke-width="2" stroke-miterlimit="10" x1="125.318" y1="158.273" x2="125.318" y2="166.273"/>
	
		<line fill="none" stroke="#E6E6E6" stroke-width="2" stroke-miterlimit="10" x1="129.318" y1="158.273" x2="129.318" y2="166.273"/>
</g>
<g>
	<line fill="none" stroke="#E6E6E6" stroke-width="2" stroke-miterlimit="10" x1="76.318" y1="86.273" x2="76.318" y2="94.273"/>
	<line fill="none" stroke="#E6E6E6" stroke-width="2" stroke-miterlimit="10" x1="80.318" y1="86.273" x2="80.318" y2="94.273"/>
	<line fill="none" stroke="#E6E6E6" stroke-width="2" stroke-miterlimit="10" x1="84.318" y1="86.273" x2="84.318" y2="94.273"/>
	<line fill="none" stroke="#E6E6E6" stroke-width="2" stroke-miterlimit="10" x1="88.318" y1="86.273" x2="88.318" y2="94.273"/>
	<line fill="none" stroke="#E6E6E6" stroke-width="2" stroke-miterlimit="10" x1="92.318" y1="86.273" x2="92.318" y2="94.273"/>
	<line fill="none" stroke="#E6E6E6" stroke-width="2" stroke-miterlimit="10" x1="96.318" y1="86.273" x2="96.318" y2="94.273"/>
	<line fill="none" stroke="#E6E6E6" stroke-width="2" stroke-miterlimit="10" x1="100.318" y1="86.273" x2="100.318" y2="94.273"/>
	<line fill="none" stroke="#E6E6E6" stroke-width="2" stroke-miterlimit="10" x1="104.318" y1="86.273" x2="104.318" y2="94.273"/>
	<line fill="none" stroke="#E6E6E6" stroke-width="2" stroke-miterlimit="10" x1="108.318" y1="86.273" x2="108.318" y2="94.273"/>
	<line fill="none" stroke="#E6E6E6" stroke-width="2" stroke-miterlimit="10" x1="112.318" y1="86.273" x2="112.318" y2="94.273"/>
	<line fill="none" stroke="#E6E6E6" stroke-width="2" stroke-miterlimit="10" x1="116.318" y1="86.273" x2="116.318" y2="94.273"/>
	<line fill="none" stroke="#E6E6E6" stroke-width="2" stroke-miterlimit="10" x1="120.318" y1="86.273" x2="120.318" y2="94.273"/>
	<line fill="none" stroke="#E6E6E6" stroke-width="2" stroke-miterlimit="10" x1="124.318" y1="86.273" x2="124.318" y2="94.273"/>
	<line fill="none" stroke="#E6E6E6" stroke-width="2" stroke-miterlimit="10" x1="128.318" y1="86.273" x2="128.318" y2="94.273"/>
</g>
<g>
	
		<line fill="none" stroke="#E6E6E6" stroke-width="2" stroke-miterlimit="10" x1="135.318" y1="152.273" x2="143.318" y2="152.273"/>
	
		<line fill="none" stroke="#E6E6E6" stroke-width="2" stroke-miterlimit="10" x1="135.318" y1="148.273" x2="143.318" y2="148.273"/>
	
		<line fill="none" stroke="#E6E6E6" stroke-width="2" stroke-miterlimit="10" x1="135.318" y1="144.273" x2="143.318" y2="144.273"/>
	
		<line fill="none" stroke="#E6E6E6" stroke-width="2" stroke-miterlimit="10" x1="135.318" y1="140.273" x2="143.318" y2="140.273"/>
	
		<line fill="none" stroke="#E6E6E6" stroke-width="2" stroke-miterlimit="10" x1="135.318" y1="136.273" x2="143.318" y2="136.273"/>
	
		<line fill="none" stroke="#E6E6E6" stroke-width="2" stroke-miterlimit="10" x1="135.318" y1="132.273" x2="143.318" y2="132.273"/>
	
		<line fill="none" stroke="#E6E6E6" stroke-width="2" stroke-miterlimit="10" x1="135.318" y1="128.273" x2="143.318" y2="128.273"/>
	
		<line fill="none" stroke="#E6E6E6" stroke-width="2" stroke-miterlimit="10" x1="135.318" y1="124.273" x2="143.318" y2="124.273"/>
	
		<line fill="none" stroke="#E6E6E6" stroke-width="2" stroke-miterlimit="10" x1="135.318" y1="120.273" x2="143.318" y2="120.273"/>
	
		<line fill="none" stroke="#E6E6E6" stroke-width="2" stroke-miterlimit="10" x1="135.318" y1="116.273" x2="143.318" y2="116.273"/>
	
		<line fill="none" stroke="#E6E6E6" stroke-width="2" stroke-miterlimit="10" x1="135.318" y1="112.273" x2="143.318" y2="112.273"/>
	
		<line fill="none" stroke="#E6E6E6" stroke-width="2" stroke-miterlimit="10" x1="135.318" y1="108.273" x2="143.318" y2="108.273"/>
	
		<line fill="none" stroke="#E6E6E6" stroke-width="2" stroke-miterlimit="10" x1="135.318" y1="104.273" x2="143.318" y2="104.273"/>
	
		<line fill="none" stroke="#E6E6E6" stroke-width="2" stroke-miterlimit="10" x1="135.318" y1="100.273" x2="143.318" y2="100.273"/>
</g>
<g>
	<line fill="none" stroke="#E6E6E6" stroke-width="2" stroke-miterlimit="10" x1="63.318" y1="152.273" x2="71.318" y2="152.273"/>
	<line fill="none" stroke="#E6E6E6" stroke-width="2" stroke-miterlimit="10" x1="63.318" y1="148.273" x2="71.318" y2="148.273"/>
	<line fill="none" stroke="#E6E6E6" stroke-width="2" stroke-miterlimit="10" x1="19.318" y1="144.273" x2="71.318" y2="144.273"/>
	<line fill="none" stroke="#E6E6E6" stroke-width="2" stroke-miterlimit="10" x1="56.318" y1="140.273" x2="71.318" y2="140.273"/>
	<line fill="none" stroke="#E6E6E6" stroke-width="2" stroke-miterlimit="10" x1="63.318" y1="136.273" x2="71.318" y2="136.273"/>
	<line fill="none" stroke="#E6E6E6" stroke-width="2" stroke-miterlimit="10" x1="63.318" y1="132.273" x2="71.318" y2="132.273"/>
	<line fill="none" stroke="#E6E6E6" stroke-width="2" stroke-miterlimit="10" x1="63.318" y1="128.273" x2="71.318" y2="128.273"/>
	<line fill="none" stroke="#E6E6E6" stroke-width="2" stroke-miterlimit="10" x1="63.318" y1="124.273" x2="71.318" y2="124.273"/>
	<polyline fill="none" stroke="#E6E6E6" stroke-width="2" stroke-miterlimit="10" points="71.318,120.273 54.318,120.273 
		40.651,128.273 18.318,128.273 	"/>
	<line fill="none" stroke="#E6E6E6" stroke-width="2" stroke-miterlimit="10" x1="18.318" y1="116.273" x2="71.318" y2="116.273"/>
	<line fill="none" stroke="#E6E6E6" stroke-width="2" stroke-miterlimit="10" x1="18.318" y1="112.273" x2="71.318" y2="112.273"/>
	<line fill="none" stroke="#E6E6E6" stroke-width="2" stroke-miterlimit="10" x1="54.318" y1="108.273" x2="71.318" y2="108.273"/>
	<line fill="none" stroke="#E6E6E6" stroke-width="2" stroke-miterlimit="10" x1="63.318" y1="104.273" x2="71.318" y2="104.273"/>
	<line fill="none" stroke="#E6E6E6" stroke-width="2" stroke-miterlimit="10" x1="63.318" y1="100.273" x2="71.318" y2="100.273"/>
	<polyline fill="none" stroke="#E6E6E6" stroke-width="2" stroke-miterlimit="10" points="71.318,124.273 54.318,124.273 
		40.651,132.273 31.318,132.273 	"/>
	<polyline fill="none" stroke="#E6E6E6" stroke-width="2" stroke-miterlimit="10" points="71.318,128.273 54.318,128.273 
		40.651,136.273 18.318,136.273 	"/>
	<circle fill="#E6E6E6" cx="31.318" cy="132.13" r="1.833"/>
	<circle fill="#E6E6E6" cx="62.318" cy="132.13" r="1.833"/>
	<circle fill="#E6E6E6" cx="18.318" cy="116.13" r="1.833"/>
	<polyline fill="none" stroke="#E6E6E6" stroke-width="2" stroke-miterlimit="10" points="71.318,136.273 54.318,136.273 
		47.651,140.273 25.318,140.273 	"/>
	<circle fill="#E6E6E6" cx="56.318" cy="140.13" r="1.833"/>
	<circle fill="#E6E6E6" cx="62.318" cy="148.13" r="1.833"/>
	<polyline fill="none" stroke="#E6E6E6" stroke-width="2" stroke-miterlimit="10" points="71.318,152.273 54.318,152.273 
		47.651,148.273 25.318,148.273 	"/>
	<polyline fill="none" stroke="#E6E6E6" stroke-width="2" stroke-miterlimit="10" points="71.318,108.273 54.318,108.273 
		47.651,104.273 25.318,104.273 	"/>
	<polyline fill="none" stroke="#E6E6E6" stroke-width="2" stroke-miterlimit="10" points="71.318,100.273 54.318,100.273 
		47.651,96.273 25.318,96.273 	"/>
	<circle fill="#E6E6E6" cx="62.318" cy="104.13" r="1.833"/>
	<g>
		
			<line fill="none" stroke="#E6E6E6" stroke-width="2" stroke-miterlimit="10" x1="129.318" y1="166.273" x2="129.318" y2="158.273"/>
		
			<line fill="none" stroke="#E6E6E6" stroke-width="2" stroke-miterlimit="10" x1="125.318" y1="166.273" x2="125.318" y2="158.273"/>
		
			<line fill="none" stroke="#E6E6E6" stroke-width="2" stroke-miterlimit="10" x1="121.318" y1="210.273" x2="121.318" y2="158.273"/>
		
			<line fill="none" stroke="#E6E6E6" stroke-width="2" stroke-miterlimit="10" x1="117.318" y1="173.273" x2="117.318" y2="158.273"/>
		
			<line fill="none" stroke="#E6E6E6" stroke-width="2" stroke-miterlimit="10" x1="113.318" y1="166.273" x2="113.318" y2="158.273"/>
		
			<line fill="none" stroke="#E6E6E6" stroke-width="2" stroke-miterlimit="10" x1="109.318" y1="166.273" x2="109.318" y2="158.273"/>
		
			<line fill="none" stroke="#E6E6E6" stroke-width="2" stroke-miterlimit="10" x1="105.318" y1="166.273" x2="105.318" y2="158.273"/>
		
			<line fill="none" stroke="#E6E6E6" stroke-width="2" stroke-miterlimit="10" x1="101.318" y1="166.273" x2="101.318" y2="158.273"/>
		<polyline fill="none" stroke="#E6E6E6" stroke-width="2" stroke-miterlimit="10" points="97.318,158.273 97.318,174.714 
			105.318,188.381 105.318,211.273 		"/>
		<line fill="none" stroke="#E6E6E6" stroke-width="2" stroke-miterlimit="10" x1="93.318" y1="211.273" x2="93.318" y2="158.273"/>
		<line fill="none" stroke="#E6E6E6" stroke-width="2" stroke-miterlimit="10" x1="89.318" y1="220.273" x2="89.318" y2="158.273"/>
		<line fill="none" stroke="#E6E6E6" stroke-width="2" stroke-miterlimit="10" x1="85.318" y1="175.273" x2="85.318" y2="158.273"/>
		<line fill="none" stroke="#E6E6E6" stroke-width="2" stroke-miterlimit="10" x1="81.318" y1="166.273" x2="81.318" y2="158.273"/>
		<line fill="none" stroke="#E6E6E6" stroke-width="2" stroke-miterlimit="10" x1="77.318" y1="166.273" x2="77.318" y2="158.273"/>
		<polyline fill="none" stroke="#E6E6E6" stroke-width="2" stroke-miterlimit="10" points="101.318,158.273 101.318,174.714 
			109.318,188.381 109.318,198.273 		"/>
		<polyline fill="none" stroke="#E6E6E6" stroke-width="2" stroke-miterlimit="10" points="105.318,158.273 105.318,174.714 
			113.318,188.381 113.318,211.273 		"/>
		<circle fill="#E6E6E6" cx="108.902" cy="197.714" r="1.833"/>
		<circle fill="#E6E6E6" cx="108.902" cy="166.714" r="1.833"/>
		<circle fill="#E6E6E6" cx="92.902" cy="210.714" r="1.833"/>
		<polyline fill="none" stroke="#E6E6E6" stroke-width="2" stroke-miterlimit="10" points="113.318,158.273 113.318,174.714 
			117.318,181.381 117.318,212.273 		"/>
		<circle fill="#E6E6E6" cx="116.902" cy="172.714" r="1.833"/>
		<circle fill="#E6E6E6" cx="124.902" cy="166.714" r="1.833"/>
		<polyline fill="none" stroke="#E6E6E6" stroke-width="2" stroke-miterlimit="10" points="129.318,158.273 129.318,174.714 
			125.318,181.381 125.318,204.273 		"/>
		<polyline fill="none" stroke="#E6E6E6" stroke-width="2" stroke-miterlimit="10" points="85.318,158.273 85.318,174.714 
			81.318,181.381 81.318,204.273 		"/>
		<polyline fill="none" stroke="#E6E6E6" stroke-width="2" stroke-miterlimit="10" points="77.318,158.273 77.318,174.714 
			73.318,181.381 73.318,197.273 		"/>
		<circle fill="#E6E6E6" cx="80.902" cy="166.714" r="1.833"/>
		<circle fill="#E6E6E6" cx="80.902" cy="203.714" r="1.833"/>
		<circle fill="#E6E6E6" cx="72.902" cy="196.714" r="1.833"/>
		<circle fill="#E6E6E6" cx="104.902" cy="211.714" r="1.833"/>
		<circle fill="#E6E6E6" cx="112.902" cy="211.714" r="1.833"/>
		<circle fill="#E6E6E6" cx="120.902" cy="210.714" r="1.833"/>
		<circle fill="#E6E6E6" cx="125.902" cy="203.714" r="1.833"/>
	</g>
	<g>
		<line fill="none" stroke="#E6E6E6" stroke-width="2" stroke-miterlimit="10" x1="76.318" y1="86.273" x2="76.318" y2="94.273"/>
		<line fill="none" stroke="#E6E6E6" stroke-width="2" stroke-miterlimit="10" x1="80.318" y1="86.273" x2="80.318" y2="94.273"/>
		<line fill="none" stroke="#E6E6E6" stroke-width="2" stroke-miterlimit="10" x1="84.318" y1="42.273" x2="84.318" y2="94.273"/>
		<line fill="none" stroke="#E6E6E6" stroke-width="2" stroke-miterlimit="10" x1="88.318" y1="79.273" x2="88.318" y2="94.273"/>
		<line fill="none" stroke="#E6E6E6" stroke-width="2" stroke-miterlimit="10" x1="92.318" y1="86.273" x2="92.318" y2="94.273"/>
		<line fill="none" stroke="#E6E6E6" stroke-width="2" stroke-miterlimit="10" x1="96.318" y1="86.273" x2="96.318" y2="94.273"/>
		<line fill="none" stroke="#E6E6E6" stroke-width="2" stroke-miterlimit="10" x1="100.318" y1="86.273" x2="100.318" y2="94.273"/>
		<line fill="none" stroke="#E6E6E6" stroke-width="2" stroke-miterlimit="10" x1="104.318" y1="86.273" x2="104.318" y2="94.273"/>
		<polyline fill="none" stroke="#E6E6E6" stroke-width="2" stroke-miterlimit="10" points="108.318,94.273 108.318,77.964 
			100.318,64.297 100.318,41.273 		"/>
		<line fill="none" stroke="#E6E6E6" stroke-width="2" stroke-miterlimit="10" x1="112.318" y1="41.273" x2="112.318" y2="94.273"/>
		<line fill="none" stroke="#E6E6E6" stroke-width="2" stroke-miterlimit="10" x1="116.318" y1="27.273" x2="116.318" y2="94.273"/>
		<line fill="none" stroke="#E6E6E6" stroke-width="2" stroke-miterlimit="10" x1="120.318" y1="77.273" x2="120.318" y2="94.273"/>
		<line fill="none" stroke="#E6E6E6" stroke-width="2" stroke-miterlimit="10" x1="124.318" y1="86.273" x2="124.318" y2="94.273"/>
		<line fill="none" stroke="#E6E6E6" stroke-width="2" stroke-miterlimit="10" x1="128.318" y1="86.273" x2="128.318" y2="94.273"/>
		<polyline fill="none" stroke="#E6E6E6" stroke-width="2" stroke-miterlimit="10" points="104.318,94.273 104.318,77.964 
			96.318,64.297 96.318,54.273 		"/>
		<polyline fill="none" stroke="#E6E6E6" stroke-width="2" stroke-miterlimit="10" points="100.318,94.273 100.318,77.964 
			92.318,64.297 92.318,41.273 		"/>
		<circle fill="#E6E6E6" cx="96.484" cy="54.964" r="1.833"/>
		<circle fill="#E6E6E6" cx="96.484" cy="85.964" r="1.833"/>
		<circle fill="#E6E6E6" cx="112.484" cy="41.964" r="1.833"/>
		<polyline fill="none" stroke="#E6E6E6" stroke-width="2" stroke-miterlimit="10" points="92.318,94.273 92.318,77.964 
			88.318,71.297 88.318,40.548 95.318,28.548 95.318,21.273 		"/>
		<circle fill="#E6E6E6" cx="88.484" cy="79.964" r="1.833"/>
		<circle fill="#E6E6E6" cx="80.484" cy="85.964" r="1.833"/>
		<polyline fill="none" stroke="#E6E6E6" stroke-width="2" stroke-miterlimit="10" points="76.318,94.273 76.318,77.964 
			80.318,71.297 80.318,48.273 		"/>
		<polyline fill="none" stroke="#E6E6E6" stroke-width="2" stroke-miterlimit="10" points="120.318,94.273 120.318,77.964 
			124.318,71.297 124.318,48.273 		"/>
		<polyline fill="none" stroke="#E6E6E6" stroke-width="2" stroke-miterlimit="10" points="128.318,94.273 128.318,77.964 
			132.318,71.297 132.318,55.273 		"/>
		<circle fill="#E6E6E6" cx="124.484" cy="85.964" r="1.833"/>
		<circle fill="#E6E6E6" cx="124.484" cy="48.964" r="1.833"/>
		<circle fill="#E6E6E6" cx="132.484" cy="55.964" r="1.833"/>
		<circle fill="#E6E6E6" cx="116.484" cy="27.964" r="1.833"/>
		<circle fill="#E6E6E6" cx="100.484" cy="40.964" r="1.833"/>
		<circle fill="#E6E6E6" cx="92.484" cy="40.964" r="1.833"/>
		<circle fill="#E6E6E6" cx="84.484" cy="41.964" r="1.833"/>
		<circle fill="#E6E6E6" cx="94.484" cy="20.964" r="1.833"/>
		<circle fill="#E6E6E6" cx="79.484" cy="48.964" r="1.833"/>
	</g>
</g>
<rect x="82.316" y="118.965" fill="none" width="46.001" height="21.333"/>
<text transform="matrix(1 0 0 1 82.3164 134.0015)" fill="#CCCCCC" font-family="'Arial-BoldMT'" font-size="21">CPU</text>
<circle fill="#4D4D4D" cx="133.923" cy="157.068" r="1.604"/>
<circle fill="#4D4D4D" cx="72.923" cy="157.068" r="1.604"/>
<circle fill="#4D4D4D" cx="71.923" cy="95.068" r="1.604"/>
<circle fill="#4D4D4D" cx="133.923" cy="95.068" r="1.604"/>
<g id="RAM">
	<rect x="70.318" y="182.273" fill="#4D4D4D" width="67" height="43"/>
	<path fill="#333333" d="M135.318,219.728c0,2.018-1.537,3.545-3.814,3.545H76.656c-2.277,0-4.338-1.527-4.338-3.545V187.54
		c0-2.017,2.061-3.267,4.338-3.267h54.848c2.277,0,3.814,1.25,3.814,3.267V219.728z"/>
	<g>
		<path fill="#808080" d="M88.406,219.55H76.953v-4.867c0-1.224,0.103-2.113,0.309-2.668s0.571-0.999,1.098-1.332
			s1.128-0.5,1.805-0.5c0.859,0,1.569,0.253,2.129,0.758s0.913,1.261,1.059,2.266c0.292-0.5,0.612-0.913,0.961-1.238
			s0.969-0.765,1.859-1.316l2.234-1.398v2.766l-2.492,1.672c-0.891,0.594-1.452,1-1.684,1.219s-0.391,0.45-0.477,0.695
			s-0.129,0.633-0.129,1.164v0.469h4.781V219.55z M81.797,217.238v-1.711c0-1.109-0.047-1.802-0.141-2.078s-0.255-0.492-0.484-0.648
			s-0.516-0.234-0.859-0.234c-0.386,0-0.696,0.103-0.934,0.309s-0.387,0.496-0.449,0.871c-0.026,0.188-0.039,0.75-0.039,1.688v1.805
			H81.797z"/>
		<path fill="#808080" d="M88.406,198.219v2.516l-2.602,1v4.578l2.602,0.945v2.453l-11.453-4.461v-2.445L88.406,198.219z
			 M83.875,202.477l-4.25,1.578l4.25,1.547V202.477z"/>
		<path fill="#808080" d="M88.406,197.568H76.953v-3.461l7.812-2.078l-7.812-2.055v-3.469h11.453v2.148h-9.016l9.016,2.273v2.227
			l-9.016,2.266h9.016V197.568z"/>
	</g>
	<g>
		<path fill="#4D4D4D" d="M98.274,214.304h1.275v4.811c-0.482-0.053-0.939-0.209-1.369-0.469c-0.432-0.262-1.004-0.775-1.717-1.543
			c-0.576-0.619-0.967-0.998-1.172-1.139c-0.283-0.188-0.564-0.283-0.84-0.283c-0.307,0-0.541,0.082-0.705,0.246
			c-0.166,0.166-0.248,0.393-0.248,0.682c0,0.287,0.086,0.516,0.26,0.684c0.172,0.17,0.459,0.268,0.859,0.293l-0.137,1.367
			c-0.756-0.08-1.297-0.336-1.627-0.766c-0.328-0.43-0.492-0.967-0.492-1.611c0-0.707,0.189-1.262,0.57-1.666
			c0.381-0.402,0.855-0.605,1.422-0.605c0.322,0,0.629,0.059,0.92,0.174s0.596,0.299,0.916,0.549
			c0.211,0.166,0.516,0.467,0.912,0.898c0.398,0.434,0.662,0.707,0.791,0.822c0.131,0.117,0.258,0.211,0.381,0.281V214.304z"/>
		<path fill="#4D4D4D" d="M96.917,210.083h-1.205v-3.115h2.852c0.293,0.303,0.551,0.742,0.773,1.316s0.334,1.156,0.334,1.746
			c0,0.748-0.156,1.4-0.471,1.957s-0.764,0.975-1.348,1.256c-0.584,0.279-1.221,0.42-1.906,0.42c-0.746,0-1.408-0.156-1.988-0.469
			c-0.578-0.312-1.023-0.77-1.332-1.373c-0.238-0.459-0.357-1.029-0.357-1.713c0-0.889,0.188-1.584,0.561-2.082
			c0.371-0.5,0.887-0.822,1.545-0.965l0.268,1.436c-0.352,0.1-0.629,0.291-0.832,0.568c-0.203,0.279-0.305,0.625-0.305,1.043
			c0,0.631,0.199,1.133,0.6,1.506s0.994,0.559,1.783,0.559c0.85,0,1.486-0.188,1.912-0.566c0.424-0.377,0.637-0.871,0.637-1.484
			c0-0.303-0.061-0.605-0.178-0.91c-0.119-0.305-0.264-0.566-0.434-0.783h-0.908V210.083z"/>
		<path fill="#4D4D4D" d="M92.392,205.97v-2.861c0-0.566,0.023-0.988,0.07-1.268c0.047-0.277,0.146-0.527,0.295-0.746
			c0.15-0.221,0.35-0.402,0.6-0.549c0.248-0.146,0.527-0.221,0.836-0.221c0.336,0,0.643,0.09,0.924,0.271
			c0.279,0.18,0.49,0.426,0.629,0.734c0.127-0.436,0.344-0.771,0.65-1.006c0.305-0.234,0.666-0.352,1.078-0.352
			c0.326,0,0.643,0.076,0.951,0.227c0.307,0.152,0.553,0.359,0.736,0.621s0.297,0.586,0.34,0.969
			c0.025,0.242,0.041,0.822,0.049,1.744v2.436H92.392z M93.583,204.525h1.654v-0.947c0-0.562-0.008-0.912-0.023-1.049
			c-0.029-0.248-0.115-0.443-0.256-0.584c-0.143-0.143-0.328-0.213-0.561-0.213c-0.221,0-0.4,0.061-0.539,0.184
			c-0.139,0.121-0.223,0.303-0.252,0.545c-0.016,0.143-0.023,0.555-0.023,1.234V204.525z M96.429,204.525h1.914v-1.338
			c0-0.52-0.014-0.852-0.043-0.99c-0.039-0.215-0.135-0.391-0.285-0.525c-0.152-0.135-0.355-0.203-0.609-0.203
			c-0.215,0-0.396,0.053-0.547,0.156c-0.148,0.105-0.258,0.256-0.326,0.451c-0.068,0.197-0.104,0.625-0.104,1.283V204.525z"/>
	</g>
</g>
<g id="ROM">
	<rect x="96.318" y="235.273" fill="#4D4D4D" width="41" height="76"/>
	<path fill="#333333" d="M134.318,302.386c0,3.699-0.861,6.887-2.14,6.887h-30.762c-1.276,0-2.099-3.188-2.099-6.887V243.38
		c0-3.697,0.822-6.107,2.099-6.107h30.762c1.278,0,2.14,2.41,2.14,6.107V302.386z"/>
	<g>
		<path fill="#808080" d="M126.428,303.716h-7.158v-4.907h1.211v3.462h1.694v-2.988h1.211v2.988h3.042V303.716z"/>
		<path fill="#808080" d="M120.539,297.967h-1.27v-1.372h1.27V297.967z M126.428,297.967h-5.186v-1.372h5.186V297.967z"/>
		<path fill="#808080" d="M126.428,294.215v1.372h-5.186v-1.274h0.737c-0.349-0.218-0.578-0.414-0.688-0.588
			c-0.11-0.175-0.166-0.372-0.166-0.594c0-0.312,0.086-0.613,0.259-0.903l1.196,0.425c-0.149,0.231-0.225,0.446-0.225,0.645
			c0,0.192,0.053,0.354,0.158,0.488c0.106,0.134,0.298,0.238,0.574,0.314c0.276,0.077,0.856,0.115,1.738,0.115H126.428z"/>
		<path fill="#808080" d="M121.242,292.08v-1.265h0.708c-0.55-0.452-0.825-0.991-0.825-1.616c0-0.332,0.068-0.62,0.205-0.864
			s0.344-0.444,0.62-0.601c-0.276-0.228-0.483-0.474-0.62-0.737s-0.205-0.545-0.205-0.845c0-0.381,0.077-0.703,0.232-0.967
			c0.154-0.264,0.381-0.461,0.681-0.591c0.222-0.095,0.579-0.142,1.074-0.142h3.315v1.372h-2.964c-0.515,0-0.847,0.047-0.996,0.142
			c-0.195,0.127-0.293,0.322-0.293,0.586c0,0.192,0.059,0.373,0.176,0.542s0.289,0.291,0.515,0.366
			c0.227,0.075,0.584,0.112,1.072,0.112h2.49v1.372h-2.842c-0.505,0-0.83,0.024-0.977,0.073s-0.256,0.124-0.327,0.228
			c-0.071,0.102-0.107,0.241-0.107,0.417c0,0.212,0.057,0.402,0.171,0.571s0.278,0.291,0.493,0.363
			c0.215,0.074,0.571,0.11,1.069,0.11h2.52v1.372H121.242z"/>
		<path fill="#808080" d="M126.428,282.459l-5.186,1.641v-1.333l3.398-0.972l-3.398-0.894v-1.323l3.398-0.864l-3.398-0.991v-1.353
			l5.186,1.665v1.318l-3.335,0.894l3.335,0.879V282.459z"/>
		<path fill="#808080" d="M122.824,274.962l-0.225,1.245c-0.501-0.14-0.872-0.381-1.113-0.723s-0.361-0.85-0.361-1.523
			c0-0.612,0.072-1.067,0.217-1.367c0.146-0.3,0.329-0.51,0.553-0.633c0.223-0.121,0.632-0.183,1.228-0.183l1.602,0.015
			c0.456,0,0.792-0.021,1.009-0.066c0.216-0.043,0.448-0.126,0.695-0.246v1.357c-0.091,0.036-0.227,0.08-0.405,0.132
			c-0.081,0.022-0.135,0.039-0.161,0.049c0.228,0.234,0.398,0.485,0.513,0.752s0.171,0.552,0.171,0.854
			c0,0.534-0.145,0.955-0.435,1.262c-0.29,0.309-0.656,0.462-1.099,0.462c-0.293,0-0.555-0.07-0.783-0.21
			c-0.23-0.14-0.406-0.336-0.527-0.588c-0.123-0.253-0.229-0.616-0.32-1.092c-0.12-0.642-0.232-1.086-0.337-1.333h-0.137
			c-0.264,0-0.452,0.065-0.563,0.195c-0.113,0.13-0.169,0.376-0.169,0.737c0,0.244,0.048,0.435,0.144,0.571
			C122.415,274.767,122.583,274.877,122.824,274.962z M123.938,273.126c0.059,0.176,0.129,0.454,0.21,0.835s0.161,0.63,0.239,0.747
			c0.127,0.179,0.288,0.269,0.483,0.269c0.192,0,0.358-0.071,0.498-0.215s0.21-0.325,0.21-0.547c0-0.247-0.081-0.483-0.244-0.708
			c-0.124-0.166-0.275-0.275-0.454-0.327c-0.117-0.036-0.34-0.054-0.669-0.054H123.938z"/>
		<path fill="#808080" d="M126.428,269.453v1.372h-5.186v-1.274h0.737c-0.349-0.218-0.578-0.414-0.688-0.588
			c-0.11-0.175-0.166-0.372-0.166-0.594c0-0.312,0.086-0.613,0.259-0.903l1.196,0.425c-0.149,0.231-0.225,0.446-0.225,0.645
			c0,0.192,0.053,0.354,0.158,0.488c0.106,0.134,0.298,0.238,0.574,0.314c0.276,0.077,0.856,0.115,1.738,0.115H126.428z"/>
		<path fill="#808080" d="M124.777,264.211l0.229-1.367c0.501,0.176,0.883,0.453,1.146,0.832c0.262,0.38,0.393,0.854,0.393,1.424
			c0,0.901-0.295,1.569-0.884,2.002c-0.472,0.342-1.067,0.513-1.787,0.513c-0.859,0-1.532-0.225-2.019-0.674
			c-0.487-0.449-0.73-1.018-0.73-1.704c0-0.771,0.255-1.38,0.764-1.826c0.51-0.446,1.29-0.659,2.342-0.64v3.438
			c0.407-0.01,0.724-0.12,0.949-0.332c0.227-0.212,0.34-0.476,0.34-0.791c0-0.215-0.059-0.396-0.176-0.542
			S125.038,264.287,124.777,264.211z M123.391,264.133c-0.397,0.01-0.699,0.112-0.906,0.308c-0.206,0.195-0.31,0.433-0.31,0.713
			c0,0.3,0.109,0.547,0.327,0.742s0.515,0.291,0.889,0.288V264.133z"/>
	</g>
	<g>
		<path fill="#808080" d="M115.012,304.167H104.99v-4.259c0-1.071,0.09-1.849,0.27-2.335c0.181-0.484,0.501-0.873,0.961-1.165
			s0.986-0.438,1.579-0.438c0.752,0,1.373,0.221,1.862,0.663c0.49,0.442,0.799,1.103,0.927,1.982
			c0.255-0.438,0.535-0.799,0.841-1.084c0.306-0.284,0.848-0.668,1.627-1.151l1.955-1.224v2.42l-2.181,1.463
			c-0.779,0.52-1.271,0.875-1.474,1.066c-0.202,0.191-0.342,0.395-0.416,0.608c-0.076,0.214-0.113,0.554-0.113,1.019v0.41h4.184
			V304.167z M109.229,302.144v-1.497c0-0.971-0.041-1.577-0.123-1.818s-0.224-0.431-0.424-0.567s-0.451-0.205-0.752-0.205
			c-0.337,0-0.609,0.09-0.816,0.27c-0.208,0.181-0.339,0.435-0.394,0.763c-0.022,0.164-0.034,0.656-0.034,1.477v1.579H109.229z"/>
		<path fill="#808080" d="M110.062,294.95c-1.021,0-1.878-0.152-2.57-0.458c-0.511-0.228-0.969-0.539-1.374-0.934
			c-0.405-0.394-0.706-0.825-0.902-1.295c-0.265-0.624-0.396-1.345-0.396-2.16c0-1.477,0.458-2.658,1.374-3.545
			c0.916-0.886,2.189-1.329,3.821-1.329c1.618,0,2.884,0.439,3.798,1.319c0.913,0.88,1.37,2.056,1.37,3.527
			c0,1.49-0.454,2.675-1.364,3.555C112.91,294.51,111.657,294.95,110.062,294.95z M109.994,292.865c1.135,0,1.995-0.262,2.58-0.786
			c0.586-0.524,0.879-1.189,0.879-1.996s-0.291-1.469-0.871-1.985c-0.582-0.518-1.453-0.776-2.615-0.776
			c-1.148,0-2.005,0.252-2.57,0.755c-0.565,0.504-0.848,1.173-0.848,2.007s0.286,1.506,0.857,2.017
			C107.979,292.61,108.841,292.865,109.994,292.865z"/>
		<path fill="#808080" d="M115.012,284.154H104.99v-3.028l6.836-1.818l-6.836-1.798v-3.035h10.021v1.88h-7.889l7.889,1.989v1.948
			l-7.889,1.982h7.889V284.154z"/>
	</g>
</g>
</svg>
