<?xml version="1.0" encoding="utf-8"?>
<!-- Generator: Adobe Illustrator 16.0.0, SVG Export Plug-In . SVG Version: 6.00 Build 0)  -->
<!DOCTYPE svg PUBLIC "-//W3C//DTD SVG 1.1//EN" "http://www.w3.org/Graphics/SVG/1.1/DTD/svg11.dtd">
<svg version="1.1" id="Ebene_1" xmlns="http://www.w3.org/2000/svg" xmlns:xlink="http://www.w3.org/1999/xlink" x="0px" y="0px"
	 width="67px" height="43.125px" viewBox="0 0 67 43.125" enable-background="new 0 0 67 43.125" xml:space="preserve">
<g id="RAM_2_">
	<rect x="0.125" y="0.125" fill="#4E4E4E" width="67" height="43"/>
	<path fill="#343434" d="M65.125,37.722c0,2.018-1.704,3.403-3.981,3.403H6.296c-2.277,0-4.171-1.386-4.171-3.403V5.533
		c0-2.017,1.894-3.408,4.171-3.408h54.848c2.277,0,3.981,1.392,3.981,3.408V37.722z"/>
	<g>
		<path fill="#808081" d="M18.046,37.544H6.593v-4.867c0-1.224,0.103-2.113,0.309-2.668s0.571-0.999,1.098-1.332
			s1.128-0.5,1.805-0.5c0.859,0,1.569,0.253,2.129,0.758s0.913,1.261,1.059,2.266c0.292-0.5,0.612-0.913,0.961-1.238
			s0.969-0.765,1.859-1.316l2.234-1.398v2.766l-2.492,1.672c-0.891,0.594-1.452,1-1.684,1.219s-0.391,0.45-0.477,0.695
			s-0.129,0.633-0.129,1.164v0.469h4.781V37.544z M11.437,35.231v-1.711c0-1.109-0.047-1.802-0.141-2.078s-0.255-0.492-0.484-0.648
			s-0.516-0.234-0.859-0.234c-0.386,0-0.696,0.103-0.934,0.309s-0.387,0.496-0.449,0.871c-0.026,0.188-0.039,0.75-0.039,1.688v1.805
			H11.437z"/>
		<path fill="#808081" d="M18.046,16.213v2.516l-2.602,1v4.578l2.602,0.945v2.453L6.593,23.244v-2.445L18.046,16.213z
			 M13.515,20.471l-4.25,1.578l4.25,1.547V20.471z"/>
		<path fill="#808081" d="M18.046,15.562H6.593v-3.461l7.812-2.078L6.593,7.968V4.499h11.453v2.148H9.03l9.016,2.273v2.227
			L9.03,13.413h9.016V15.562z"/>
	</g>
	<g>
		<path fill="#4E4E4E" d="M27.914,32.298h1.275v4.811c-0.482-0.053-0.939-0.209-1.369-0.469c-0.432-0.262-1.004-0.775-1.717-1.543
			c-0.576-0.619-0.967-0.998-1.172-1.139c-0.283-0.188-0.564-0.283-0.84-0.283c-0.307,0-0.541,0.082-0.705,0.246
			c-0.166,0.166-0.248,0.393-0.248,0.682c0,0.287,0.086,0.516,0.26,0.684c0.172,0.17,0.459,0.268,0.859,0.293l-0.137,1.367
			c-0.756-0.08-1.297-0.336-1.627-0.766c-0.328-0.43-0.492-0.967-0.492-1.611c0-0.707,0.189-1.262,0.57-1.666
			c0.381-0.402,0.855-0.605,1.422-0.605c0.322,0,0.629,0.059,0.92,0.174s0.596,0.299,0.916,0.549
			c0.211,0.166,0.516,0.467,0.912,0.898c0.398,0.434,0.662,0.707,0.791,0.822c0.131,0.117,0.258,0.211,0.381,0.281V32.298z"/>
		<path fill="#4E4E4E" d="M26.557,28.077h-1.205v-3.115h2.852c0.293,0.303,0.551,0.742,0.773,1.316s0.334,1.156,0.334,1.746
			c0,0.748-0.156,1.4-0.471,1.957s-0.764,0.975-1.348,1.256c-0.584,0.279-1.221,0.42-1.906,0.42c-0.746,0-1.408-0.156-1.988-0.469
			c-0.578-0.312-1.023-0.77-1.332-1.373c-0.238-0.459-0.357-1.029-0.357-1.713c0-0.889,0.188-1.584,0.561-2.082
			c0.371-0.5,0.887-0.822,1.545-0.965l0.268,1.436c-0.352,0.1-0.629,0.291-0.832,0.568c-0.203,0.279-0.305,0.625-0.305,1.043
			c0,0.631,0.199,1.133,0.6,1.506s0.994,0.559,1.783,0.559c0.85,0,1.486-0.188,1.912-0.566c0.424-0.377,0.637-0.871,0.637-1.484
			c0-0.303-0.061-0.605-0.178-0.91c-0.119-0.305-0.264-0.566-0.434-0.783h-0.908V28.077z"/>
		<path fill="#4E4E4E" d="M22.031,23.964v-2.861c0-0.566,0.023-0.988,0.07-1.268c0.047-0.277,0.146-0.527,0.295-0.746
			c0.15-0.221,0.35-0.402,0.6-0.549c0.248-0.146,0.527-0.221,0.836-0.221c0.336,0,0.643,0.09,0.924,0.271
			c0.279,0.18,0.49,0.426,0.629,0.734c0.127-0.436,0.344-0.771,0.65-1.006c0.305-0.234,0.666-0.352,1.078-0.352
			c0.326,0,0.643,0.076,0.951,0.227c0.307,0.152,0.553,0.359,0.736,0.621s0.297,0.586,0.34,0.969
			c0.025,0.242,0.041,0.822,0.049,1.744v2.436H22.031z M23.223,22.519h1.654v-0.947c0-0.562-0.008-0.912-0.023-1.049
			c-0.029-0.248-0.115-0.443-0.256-0.584c-0.143-0.143-0.328-0.213-0.561-0.213c-0.221,0-0.4,0.061-0.539,0.184
			c-0.139,0.121-0.223,0.303-0.252,0.545c-0.016,0.143-0.023,0.555-0.023,1.234V22.519z M26.068,22.519h1.914v-1.338
			c0-0.52-0.014-0.852-0.043-0.99c-0.039-0.215-0.135-0.391-0.285-0.525c-0.152-0.135-0.355-0.203-0.609-0.203
			c-0.215,0-0.396,0.053-0.547,0.156c-0.148,0.105-0.258,0.256-0.326,0.451c-0.068,0.197-0.104,0.625-0.104,1.283V22.519z"/>
	</g>
</g>
</svg>
