<?xml version="1.0" encoding="utf-8"?>
<!-- Generator: Adobe Illustrator 16.0.0, SVG Export Plug-In . SVG Version: 6.00 Build 0)  -->
<!DOCTYPE svg PUBLIC "-//W3C//DTD SVG 1.1//EN" "http://www.w3.org/Graphics/SVG/1.1/DTD/svg11.dtd">
<svg version="1.1" id="Ebene_1" xmlns="http://www.w3.org/2000/svg" xmlns:xlink="http://www.w3.org/1999/xlink" x="0px" y="0px"
	 width="41px" height="75.666px" viewBox="0 0 41 75.666" enable-background="new 0 0 41 75.666" xml:space="preserve">
<g id="ROM_2_">
	<rect x="0.333" y="-0.001" fill="#4E4E4E" width="41" height="76"/>
	<path fill="#343434" d="M38.333,67.254c0,3.699-1.028,6.745-2.307,6.745H5.265c-1.276,0-1.932-3.046-1.932-6.745V8.248
		c0-3.697,0.655-6.249,1.932-6.249h30.762c1.278,0,2.307,2.552,2.307,6.249V67.254z"/>
	<g>
		<path fill="#808081" d="M30.276,68.584h-7.158v-4.907h1.211v3.462h1.694V64.15h1.211v2.988h3.042V68.584z"/>
		<path fill="#808081" d="M24.387,62.835h-1.27v-1.372h1.27V62.835z M30.276,62.835H25.09v-1.372h5.186V62.835z"/>
		<path fill="#808081" d="M30.276,59.083v1.372H25.09v-1.274h0.737c-0.349-0.218-0.578-0.414-0.688-0.588
			c-0.11-0.175-0.166-0.372-0.166-0.594c0-0.312,0.086-0.613,0.259-0.903l1.196,0.425c-0.149,0.231-0.225,0.446-0.225,0.645
			c0,0.192,0.053,0.354,0.158,0.488c0.106,0.134,0.298,0.238,0.574,0.314c0.276,0.077,0.856,0.115,1.738,0.115H30.276z"/>
		<path fill="#808081" d="M25.09,56.947v-1.265h0.708c-0.55-0.452-0.825-0.991-0.825-1.616c0-0.332,0.068-0.62,0.205-0.864
			s0.344-0.444,0.62-0.601c-0.276-0.228-0.483-0.474-0.62-0.737s-0.205-0.545-0.205-0.845c0-0.381,0.077-0.703,0.232-0.967
			c0.154-0.264,0.381-0.461,0.681-0.591c0.222-0.095,0.579-0.142,1.074-0.142h3.315v1.372h-2.964c-0.515,0-0.847,0.047-0.996,0.142
			c-0.195,0.127-0.293,0.322-0.293,0.586c0,0.192,0.059,0.373,0.176,0.542s0.289,0.291,0.515,0.366
			c0.227,0.075,0.584,0.112,1.072,0.112h2.49v1.372h-2.842c-0.505,0-0.83,0.024-0.977,0.073s-0.256,0.124-0.327,0.228
			c-0.071,0.102-0.107,0.241-0.107,0.417c0,0.212,0.057,0.402,0.171,0.571s0.278,0.291,0.493,0.363
			c0.215,0.074,0.571,0.11,1.069,0.11h2.52v1.372H25.09z"/>
		<path fill="#808081" d="M30.276,47.327l-5.186,1.641v-1.333l3.398-0.972L25.09,45.77v-1.323l3.398-0.864l-3.398-0.991v-1.353
			l5.186,1.665v1.318l-3.335,0.894l3.335,0.879V47.327z"/>
		<path fill="#808081" d="M26.672,39.83l-0.225,1.245c-0.501-0.14-0.872-0.381-1.113-0.723s-0.361-0.85-0.361-1.523
			c0-0.612,0.072-1.067,0.217-1.367c0.146-0.3,0.329-0.51,0.553-0.633c0.223-0.121,0.632-0.183,1.228-0.183l1.602,0.015
			c0.456,0,0.792-0.021,1.009-0.066c0.216-0.043,0.448-0.126,0.695-0.246v1.357c-0.091,0.036-0.227,0.08-0.405,0.132
			c-0.081,0.022-0.135,0.039-0.161,0.049c0.228,0.234,0.398,0.485,0.513,0.752s0.171,0.552,0.171,0.854
			c0,0.534-0.145,0.955-0.435,1.262c-0.29,0.309-0.656,0.462-1.099,0.462c-0.293,0-0.555-0.07-0.783-0.21
			c-0.23-0.14-0.406-0.336-0.527-0.588c-0.123-0.253-0.229-0.616-0.32-1.092c-0.12-0.642-0.232-1.086-0.337-1.333h-0.137
			c-0.264,0-0.452,0.065-0.563,0.195c-0.113,0.13-0.169,0.376-0.169,0.737c0,0.244,0.048,0.435,0.144,0.571
			C26.263,39.635,26.431,39.745,26.672,39.83z M27.786,37.994c0.059,0.176,0.129,0.454,0.21,0.835s0.161,0.63,0.239,0.747
			c0.127,0.179,0.288,0.269,0.483,0.269c0.192,0,0.358-0.071,0.498-0.215s0.21-0.325,0.21-0.547c0-0.247-0.081-0.483-0.244-0.708
			c-0.124-0.166-0.275-0.275-0.454-0.327c-0.117-0.036-0.34-0.054-0.669-0.054H27.786z"/>
		<path fill="#808081" d="M30.276,34.32v1.372H25.09v-1.274h0.737c-0.349-0.218-0.578-0.414-0.688-0.588
			c-0.11-0.175-0.166-0.372-0.166-0.594c0-0.312,0.086-0.613,0.259-0.903l1.196,0.425c-0.149,0.231-0.225,0.446-0.225,0.645
			c0,0.192,0.053,0.354,0.158,0.488c0.106,0.134,0.298,0.238,0.574,0.314c0.276,0.077,0.856,0.115,1.738,0.115H30.276z"/>
		<path fill="#808081" d="M28.625,29.079l0.229-1.367c0.501,0.176,0.883,0.453,1.146,0.832c0.262,0.38,0.393,0.854,0.393,1.424
			c0,0.901-0.295,1.569-0.884,2.002c-0.472,0.342-1.067,0.513-1.787,0.513c-0.859,0-1.532-0.225-2.019-0.674
			c-0.487-0.449-0.73-1.018-0.73-1.704c0-0.771,0.255-1.38,0.764-1.826c0.51-0.446,1.29-0.659,2.342-0.64v3.438
			c0.407-0.01,0.724-0.12,0.949-0.332c0.227-0.212,0.34-0.476,0.34-0.791c0-0.215-0.059-0.396-0.176-0.542
			S28.886,29.154,28.625,29.079z M27.239,29.001c-0.397,0.01-0.699,0.112-0.906,0.308c-0.206,0.195-0.31,0.433-0.31,0.713
			c0,0.3,0.109,0.547,0.327,0.742s0.515,0.291,0.889,0.288V29.001z"/>
	</g>
	<g>
		<path fill="#808081" d="M18.86,69.035H8.838v-4.259c0-1.071,0.09-1.849,0.27-2.335c0.181-0.484,0.501-0.873,0.961-1.165
			s0.986-0.438,1.579-0.438c0.752,0,1.373,0.221,1.862,0.663c0.49,0.442,0.799,1.103,0.927,1.982
			c0.255-0.438,0.535-0.799,0.841-1.084c0.306-0.284,0.848-0.668,1.627-1.151l1.955-1.224v2.42l-2.181,1.463
			c-0.779,0.52-1.271,0.875-1.474,1.066c-0.202,0.191-0.342,0.395-0.416,0.608c-0.076,0.214-0.113,0.554-0.113,1.019v0.41h4.184
			V69.035z M13.077,67.012v-1.497c0-0.971-0.041-1.577-0.123-1.818s-0.224-0.431-0.424-0.567s-0.451-0.205-0.752-0.205
			c-0.337,0-0.609,0.09-0.816,0.27c-0.208,0.181-0.339,0.435-0.394,0.763c-0.022,0.164-0.034,0.656-0.034,1.477v1.579H13.077z"/>
		<path fill="#808081" d="M13.911,59.817c-1.021,0-1.878-0.152-2.57-0.458c-0.511-0.228-0.969-0.539-1.374-0.934
			c-0.405-0.394-0.706-0.825-0.902-1.295c-0.265-0.624-0.396-1.345-0.396-2.16c0-1.477,0.458-2.658,1.374-3.545
			c0.916-0.886,2.189-1.329,3.821-1.329c1.618,0,2.884,0.439,3.798,1.319c0.913,0.88,1.37,2.056,1.37,3.527
			c0,1.49-0.454,2.675-1.364,3.555C16.758,59.378,15.505,59.817,13.911,59.817z M13.842,57.732c1.135,0,1.995-0.262,2.58-0.786
			c0.586-0.524,0.879-1.189,0.879-1.996s-0.291-1.469-0.871-1.985c-0.582-0.518-1.453-0.776-2.615-0.776
			c-1.148,0-2.005,0.252-2.57,0.755c-0.565,0.504-0.848,1.173-0.848,2.007s0.286,1.506,0.857,2.017
			C11.827,57.478,12.689,57.732,13.842,57.732z"/>
		<path fill="#808081" d="M18.86,49.021H8.838v-3.028l6.836-1.818l-6.836-1.798v-3.035H18.86v1.88h-7.889l7.889,1.989v1.948
			l-7.889,1.982h7.889V49.021z"/>
	</g>
</g>
</svg>
