<?xml version="1.0" encoding="utf-8"?>
<!-- Generator: Adobe Illustrator 16.0.0, SVG Export Plug-In . SVG Version: 6.00 Build 0)  -->
<!DOCTYPE svg PUBLIC "-//W3C//DTD SVG 1.1//EN" "http://www.w3.org/Graphics/SVG/1.1/DTD/svg11.dtd">
<svg version="1.1" id="Ebene_1" xmlns="http://www.w3.org/2000/svg" xmlns:xlink="http://www.w3.org/1999/xlink" x="0px" y="0px"
	 width="60px" height="40px" viewBox="0 0 60 40" enable-background="new 0 0 60 40" xml:space="preserve">
<path fill="#1A1A1A" d="M59,37.475C59,38.547,58.256,39,57.184,39H40.032c0,0-1.295-1.855-4.652-1.855
	c-2.517,0-4.652-0.144-4.652-0.144L30.647,39c0,0-4.774,0-6.473,0c-1.699,0-4.692-4-7.12-4c-1.132,0-14.238,0-14.238,0
	C1.745,35,1,33.693,1,32.621V2.525C1,1.453,1.745,1,2.817,1h54.367C58.256,1,59,1.453,59,2.525V37.475z"/>
<rect x="4" y="3" fill="#FBB03B" width="9" height="2"/>
<rect x="4" y="6" fill="#FBB03B" width="9" height="3"/>
<rect x="3" y="10" fill="#FBB03B" width="10" height="3"/>
<rect x="4" y="14" fill="#FBB03B" width="9" height="3"/>
<rect x="3" y="18" fill="#FBB03B" width="10" height="3"/>
<rect x="4" y="22" fill="#FBB03B" width="9" height="3"/>
<rect x="4" y="26" fill="#FBB03B" width="9" height="3"/>
<rect x="4" y="30" fill="#FBB03B" width="9" height="3"/>
</svg>
