<?xml version="1.0" encoding="utf-8"?>
<!-- Generator: Adobe Illustrator 16.0.0, SVG Export Plug-In . SVG Version: 6.00 Build 0)  -->
<!DOCTYPE svg PUBLIC "-//W3C//DTD SVG 1.1//EN" "http://www.w3.org/Graphics/SVG/1.1/DTD/svg11.dtd">
<svg version="1.1" id="Ebene_1" xmlns="http://www.w3.org/2000/svg" xmlns:xlink="http://www.w3.org/1999/xlink" x="0px" y="0px"
	 width="101.5px" height="65.917px" viewBox="36.5 23.583 101.5 65.917" enable-background="new 36.5 23.583 101.5 65.917"
	 xml:space="preserve">
<g id="Ebene_1_1_">
	<path fill="#1A1A1A" d="M124.656,89H37.993c-0.825,0-1.493-0.668-1.493-1.493V25.301c0-0.825,0.668-1.493,1.493-1.493h97.765
		c0.824,0,1.493,0.668,1.493,1.493v50.364L124.656,89z"/>
</g>
<g id="Ebene_2">
	<path fill="#FBB03B" d="M95.023,75.558c0,3.532-3.041,6.775-6.393,6.775H47.504c-3.352,0-5.818-3.243-5.818-6.775v-19.07V37.854
		c0-3.533,2.467-6.638,5.818-6.638h41.127c3.352,0,6.393,3.104,6.393,6.638V75.558z"/>
	<g display="none">
		<g display="inline">
			<rect x="37.981" y="59.367" fill="#FBB03B" width="20.002" height="1.481"/>
		</g>
		<g display="inline">
			<rect x="77.244" y="59.367" fill="#FBB03B" width="19.261" height="1.481"/>
		</g>
		<g display="inline">
			<polygon fill="#FBB03B" points="57.984,65.294 56.502,65.294 56.502,53.44 66.132,53.44 66.132,45.575 53.741,31.71 
				54.847,30.723 67.614,45.009 67.614,54.923 57.984,54.923 			"/>
		</g>
		<g display="inline">
			<polygon fill="#FBB03B" points="77.615,65.483 76.133,65.476 76.194,53.344 76.622,53.149 81.731,47.515 96.505,47.515 
				96.505,48.996 82.388,48.996 77.672,54.198 			"/>
		</g>
		<g display="inline">
			<rect x="57.243" y="65.294" fill="#FBB03B" width="20.001" height="1.481"/>
		</g>
		<g display="inline">
			<rect x="66.132" y="65.294" fill="#FBB03B" width="1.481" height="8.148"/>
		</g>
		<g display="inline">
			<polygon fill="#FBB03B" points="57.046,54.659 52.275,48.996 37.981,48.996 37.981,47.515 52.965,47.515 58.18,53.704 			"/>
		</g>
		<g display="inline">
			<polygon fill="#FBB03B" points="96.505,72.702 81.729,72.702 76.195,66.529 77.299,65.54 82.39,71.221 96.505,71.221 			"/>
		</g>
		<g display="inline">
			<polygon fill="#FBB03B" points="52.965,72.702 37.981,72.702 37.981,71.221 52.275,71.221 57.046,65.557 58.18,66.513 			"/>
		</g>
		<g display="inline">
			
				<rect x="76.646" y="30.286" transform="matrix(-0.7456 -0.6664 0.6664 -0.7456 112.4576 110.8331)" fill="#FBB03B" width="1.481" height="7.325"/>
		</g>
		<g display="inline">
			
				<rect x="69.415" y="37.762" transform="matrix(-0.7398 -0.6729 0.6729 -0.7398 93.735 120.4329)" fill="#FBB03B" width="1.481" height="8.657"/>
		</g>
		<g display="inline">
			
				<rect x="60.167" y="70.665" transform="matrix(-0.7366 -0.6763 0.6763 -0.7366 51.7347 179.9465)" fill="#FBB03B" width="1.483" height="18.467"/>
		</g>
		<g display="inline">
			
				<rect x="73.726" y="83.305" transform="matrix(-0.6666 -0.7454 0.7454 -0.6666 66.3303 197.7591)" fill="#FBB03B" width="7.326" height="1.482"/>
		</g>
		<g display="inline">
			
				<rect x="66.042" y="75.361" transform="matrix(-0.6907 -0.7231 0.7231 -0.6907 63.6586 179.4279)" fill="#FBB03B" width="8.314" height="1.481"/>
		</g>
	</g>
	<g>
		<g>
			<defs>
				<path id="SVGID_1_" d="M95.023,75.558c0,3.532-3.041,6.775-6.393,6.775H47.504c-3.352,0-5.818-3.243-5.818-6.775v-19.07V37.854
					c0-3.533,2.467-6.638,5.818-6.638h41.127c3.352,0,6.393,3.104,6.393,6.638V75.558z"/>
			</defs>
			<clipPath id="SVGID_2_">
				<use xlink:href="#SVGID_1_"  overflow="visible"/>
			</clipPath>
			<g clip-path="url(#SVGID_2_)">
				<g>
					<rect x="41.686" y="57.145" width="17.779" height="0.741"/>
				</g>
				<g>
					<rect x="77.244" y="57.145" width="18.521" height="0.741"/>
				</g>
				<g>
					<polygon points="59.465,62.331 58.725,62.331 58.725,51.959 67.614,51.959 67.614,44.411 55.426,30.876 55.978,30.381 
						68.354,44.126 68.354,52.7 59.465,52.7 					"/>
				</g>
				<g>
					<polygon points="76.625,62.361 76.597,51.838 76.768,51.384 81.383,46.033 95.023,46.033 95.023,46.773 81.722,46.773 
						77.38,51.81 77.337,51.946 77.365,62.359 					"/>
				</g>
				<g>
					<rect x="58.725" y="62.331" width="18.52" height="0.74"/>
				</g>
				<g>
					<rect x="67.614" y="62.331" width="0.741" height="7.408"/>
				</g>
				<g>
					<polygon points="59.147,52.78 54.589,47.515 41.686,47.515 41.686,46.773 54.928,46.773 59.708,52.296 					"/>
				</g>
				<g>
					<polygon points="95.023,68.257 81.383,68.257 76.6,62.736 77.159,62.251 81.722,67.517 95.023,67.517 					"/>
				</g>
				<g>
					<polygon points="54.928,68.257 41.686,68.257 41.686,67.517 54.589,67.517 59.147,62.251 59.708,62.736 					"/>
				</g>
				<g>
					
						<rect x="77.271" y="29.722" transform="matrix(-0.7449 -0.6671 0.6671 -0.7449 113.087 110.3656)" width="0.741" height="7.686"/>
				</g>
				<g>
					
						<rect x="70.348" y="37.412" transform="matrix(-0.7402 -0.6724 0.6724 -0.7402 95.2601 119.511)" width="0.741" height="7.88"/>
				</g>
				<g>
					
						<rect x="61.542" y="67.207" transform="matrix(-0.7371 -0.6758 0.6758 -0.7371 56.0731 174.1654)" width="0.74" height="17.939"/>
				</g>
				<g>
					
						<rect x="73.797" y="79.552" transform="matrix(-0.6668 -0.7453 0.7453 -0.6668 69.8436 191.0736)" width="7.686" height="0.739"/>
				</g>
				<g>
					
						<rect x="66.972" y="71.936" transform="matrix(-0.6907 -0.7231 0.7231 -0.6907 67.3419 173.4143)" width="7.567" height="0.741"/>
				</g>
			</g>
		</g>
	</g>
</g>
<g id="Ebene_3" display="none">
	<path display="inline" fill="#1A1A1A" d="M82.25,51c0,1.104-0.896,2-2,2H62.584c0,0-1.334-2.125-4.793-2.125
		c-2.593,0-4.792-0.041-4.792-0.041L52.917,53c0,0-4.917,0-6.667,0s-4.833-5-7.333-5c-1.167,0-14.666,0-14.666,0
		c-1.104,0-2-0.896-2-2V15c0-1.104,0.896-2,2-2h56c1.104,0,2,0.896,2,2L82.25,51L82.25,51z"/>
	<rect x="25.25" y="15" display="inline" fill="#FBB03B" width="9" height="3"/>
	<rect x="25.25" y="19" display="inline" fill="#FBB03B" width="9" height="3"/>
	<rect x="24.25" y="23" display="inline" fill="#FBB03B" width="10" height="3"/>
	<rect x="25.25" y="27" display="inline" fill="#FBB03B" width="9" height="3"/>
	<rect x="24.25" y="31" display="inline" fill="#FBB03B" width="10" height="3"/>
	<rect x="25.25" y="35" display="inline" fill="#FBB03B" width="9" height="3"/>
	<rect x="25.25" y="39" display="inline" fill="#FBB03B" width="9" height="3"/>
	<rect x="25.25" y="43" display="inline" fill="#FBB03B" width="9" height="3"/>
</g>
</svg>
