<?xml version="1.0" encoding="utf-8"?>
<!-- Generator: Adobe Illustrator 16.0.0, SVG Export Plug-In . SVG Version: 6.00 Build 0)  -->
<!DOCTYPE svg PUBLIC "-//W3C//DTD SVG 1.1//EN" "http://www.w3.org/Graphics/SVG/1.1/DTD/svg11.dtd">
<svg version="1.1" xmlns="http://www.w3.org/2000/svg" xmlns:xlink="http://www.w3.org/1999/xlink" x="0px" y="0px" width="138px"
	 height="89.5px" viewBox="0 0 138 89.5" enable-background="new 0 0 138 89.5" xml:space="preserve">
<g id="Ebene_1">
	<path fill="#1A1A1A" d="M120.25,89H3.265c-1.113,0-2.015-0.902-2.015-2.015V3.015C1.25,1.902,2.152,1,3.265,1h131.971
		c1.112,0,2.015,0.902,2.015,2.015V71L120.25,89z"/>
</g>
<g id="Ebene_2">
	<path fill="#FBB03B" d="M80.25,70.854c0,4.769-4.105,9.146-8.629,9.146H16.104c-4.524,0-7.854-4.377-7.854-9.146V45.113V19.96
		c0-4.769,3.33-8.96,7.854-8.96h55.517c4.523,0,8.629,4.191,8.629,8.96V70.854z"/>
	<g display="none">
		<g display="inline">
			<rect x="3.25" y="49" fill="#FBB03B" width="27" height="2"/>
		</g>
		<g display="inline">
			<rect x="56.25" y="49" fill="#FBB03B" width="26" height="2"/>
		</g>
		<g display="inline">
			<polygon fill="#FBB03B" points="30.25,57 28.25,57 28.25,41 41.25,41 41.25,30.382 24.524,11.667 26.016,10.333 43.25,29.618 
				43.25,43 30.25,43 			"/>
		</g>
		<g display="inline">
			<polygon fill="#FBB03B" points="56.75,57.255 54.75,57.245 54.832,40.868 55.41,40.607 62.307,33 82.25,33 82.25,35 63.193,35 
				56.826,42.023 			"/>
		</g>
		<g display="inline">
			<rect x="29.25" y="57" fill="#FBB03B" width="27" height="2"/>
		</g>
		<g display="inline">
			<rect x="41.25" y="57" fill="#FBB03B" width="2" height="11"/>
		</g>
		<g display="inline">
			<polygon fill="#FBB03B" points="28.985,42.645 22.545,35 3.25,35 3.25,33 23.476,33 30.515,41.355 			"/>
		</g>
		<g display="inline">
			<polygon fill="#FBB03B" points="82.25,67 62.304,67 54.833,58.668 56.323,57.332 63.196,65 82.25,65 			"/>
		</g>
		<g display="inline">
			<polygon fill="#FBB03B" points="23.476,67 3.25,67 3.25,65 22.545,65 28.985,57.355 30.515,58.645 			"/>
		</g>
		<g display="inline">
			
				<rect x="55.445" y="9.741" transform="matrix(0.7455 0.6665 -0.6665 0.7455 24.1497 -33.8808)" fill="#FBB03B" width="2" height="9.888"/>
		</g>
		<g display="inline">
			
				<rect x="45.68" y="19.833" transform="matrix(0.7398 0.6729 -0.6729 0.7398 29.4247 -24.7278)" fill="#FBB03B" width="2" height="11.686"/>
		</g>
		<g display="inline">
			
				<rect x="33.196" y="64.249" transform="matrix(0.737 0.6759 -0.6759 0.737 60.8469 -2.936)" fill="#FBB03B" width="2" height="24.929"/>
		</g>
		<g display="inline">
			
				<rect x="51.5" y="81.314" transform="matrix(0.6666 0.7454 -0.7454 0.6666 80.1765 -14.631)" fill="#FBB03B" width="9.889" height="2.001"/>
		</g>
		<g display="inline">
			
				<rect x="41.124" y="70.59" transform="matrix(0.6907 0.7231 -0.7231 0.6907 66.2253 -11.6535)" fill="#FBB03B" width="11.223" height="2"/>
		</g>
	</g>
	<g>
		<defs>
			<path id="SVGID_1_" d="M80.25,70.854c0,4.769-4.105,9.146-8.629,9.146H16.104c-4.524,0-7.854-4.377-7.854-9.146V45.113V19.96
				c0-4.769,3.33-8.96,7.854-8.96h55.517c4.523,0,8.629,4.191,8.629,8.96V70.854z"/>
		</defs>
		<clipPath id="SVGID_2_">
			<use xlink:href="#SVGID_1_"  overflow="visible"/>
		</clipPath>
		<g clip-path="url(#SVGID_2_)">
			<g>
				<rect x="8.25" y="46" width="24" height="1"/>
			</g>
			<g>
				<rect x="56.25" y="46" width="25" height="1"/>
			</g>
			<g>
				<polygon points="32.25,53 31.25,53 31.25,39 43.25,39 43.25,28.81 26.798,10.541 27.542,9.872 44.25,28.426 44.25,40 32.25,40 
									"/>
			</g>
			<g>
				<polygon points="55.413,53.041 55.375,38.835 55.607,38.223 61.835,31 80.25,31 80.25,32 62.293,32 56.433,38.797 
					56.375,38.983 56.413,53.039 				"/>
			</g>
			<g>
				<rect x="31.25" y="53" width="25" height="1"/>
			</g>
			<g>
				<rect x="43.25" y="53" width="1" height="10"/>
			</g>
			<g>
				<polygon points="31.821,40.108 25.668,33 8.25,33 8.25,32 26.125,32 32.577,39.454 				"/>
			</g>
			<g>
				<polygon points="80.25,61 61.836,61 55.379,53.547 56.135,52.893 62.293,60 80.25,60 				"/>
			</g>
			<g>
				<polygon points="26.125,61 8.25,61 8.25,60 25.668,60 31.821,52.893 32.577,53.547 				"/>
			</g>
			<g>
				<rect x="56.285" y="8.98" transform="matrix(0.7451 0.667 -0.667 0.7451 23.9248 -34.2624)" width="1" height="10.375"/>
			</g>
			<g>
				<rect x="46.939" y="19.365" transform="matrix(0.74 0.6726 -0.6726 0.74 28.9375 -25.4909)" width="1" height="10.636"/>
			</g>
			<g>
				<rect x="35.058" y="59.584" transform="matrix(0.7367 0.6762 -0.6762 0.7367 57.8363 -5.1699)" width="0.999" height="24.215"/>
			</g>
			<g>
				<rect x="51.597" y="76.242" transform="matrix(0.6668 0.7453 -0.7453 0.6668 76.116 -16.747)" width="10.375" height="0.999"/>
			</g>
			<g>
				<rect x="42.382" y="65.968" transform="matrix(0.6907 0.7231 -0.7231 0.6907 62.753 -13.7834)" width="10.215" height="1.001"/>
			</g>
		</g>
	</g>
</g>
<g id="Ebene_3" display="none">
	<path display="inline" fill="#1A1A1A" d="M82.25,51c0,1.104-0.896,2-2,2H62.584c0,0-1.334-2.125-4.793-2.125
		c-2.593,0-4.792-0.041-4.792-0.041L52.917,53c0,0-4.917,0-6.667,0s-4.833-5-7.333-5c-1.167,0-14.666,0-14.666,0
		c-1.104,0-2-0.896-2-2V15c0-1.104,0.896-2,2-2h56c1.104,0,2,0.896,2,2V51z"/>
	<rect x="25.25" y="15" display="inline" fill="#FBB03B" width="9" height="3"/>
	<rect x="25.25" y="19" display="inline" fill="#FBB03B" width="9" height="3"/>
	<rect x="24.25" y="23" display="inline" fill="#FBB03B" width="10" height="3"/>
	<rect x="25.25" y="27" display="inline" fill="#FBB03B" width="9" height="3"/>
	<rect x="24.25" y="31" display="inline" fill="#FBB03B" width="10" height="3"/>
	<rect x="25.25" y="35" display="inline" fill="#FBB03B" width="9" height="3"/>
	<rect x="25.25" y="39" display="inline" fill="#FBB03B" width="9" height="3"/>
	<rect x="25.25" y="43" display="inline" fill="#FBB03B" width="9" height="3"/>
</g>
</svg>
