<?xml version="1.0" encoding="utf-8"?>
<!-- Generator: Adobe Illustrator 16.0.0, SVG Export Plug-In . SVG Version: 6.00 Build 0)  -->
<!DOCTYPE svg PUBLIC "-//W3C//DTD SVG 1.1//EN" "http://www.w3.org/Graphics/SVG/1.1/DTD/svg11.dtd">
<svg version="1.1" xmlns="http://www.w3.org/2000/svg" xmlns:xlink="http://www.w3.org/1999/xlink" x="0px" y="0px" width="260px"
	 height="20px" viewBox="0 0 260 20" enable-background="new 0 0 260 20" xml:space="preserve">
<g id="Ebene_2">
	<rect x="-12" y="-7" width="301" height="42"/>
</g>
<g id="Ebene_1">
	<path fill="#86E64F" d="M190.117,12.203c0,0.197-0.03,0.378-0.094,0.541c-0.062,0.16-0.149,0.303-0.262,0.422
		c-0.111,0.119-0.246,0.217-0.404,0.293c-0.156,0.078-0.333,0.133-0.523,0.166v0.023c0.479,0.061,0.843,0.213,1.094,0.457
		c0.248,0.246,0.372,0.564,0.372,0.957c0,0.261-0.045,0.499-0.132,0.715c-0.087,0.217-0.223,0.404-0.401,0.562
		c-0.178,0.156-0.402,0.278-0.678,0.366c-0.273,0.085-0.597,0.129-0.971,0.129c-0.295,0-0.574-0.021-0.834-0.068
		c-0.262-0.047-0.509-0.131-0.737-0.253v-0.69c0.233,0.125,0.49,0.221,0.766,0.289s0.538,0.102,0.791,0.102
		c0.248,0,0.463-0.027,0.644-0.082c0.183-0.053,0.333-0.131,0.45-0.231c0.118-0.1,0.205-0.224,0.26-0.37
		c0.056-0.146,0.083-0.309,0.083-0.49c0-0.184-0.036-0.343-0.108-0.474c-0.069-0.132-0.173-0.241-0.307-0.325
		c-0.132-0.086-0.293-0.148-0.485-0.189c-0.19-0.04-0.407-0.061-0.647-0.061h-0.541v-0.613h0.541c0.221,0,0.413-0.027,0.586-0.082
		c0.169-0.053,0.313-0.131,0.428-0.23c0.115-0.101,0.202-0.221,0.262-0.357c0.059-0.139,0.09-0.29,0.09-0.455
		c0-0.141-0.025-0.268-0.073-0.379c-0.048-0.11-0.117-0.205-0.206-0.281c-0.091-0.078-0.197-0.137-0.321-0.177
		c-0.124-0.041-0.264-0.062-0.416-0.062c-0.288,0-0.544,0.045-0.765,0.136c-0.222,0.091-0.433,0.209-0.632,0.356l-0.374-0.508
		c0.102-0.084,0.218-0.164,0.345-0.236c0.125-0.072,0.264-0.138,0.411-0.193s0.309-0.1,0.478-0.132
		c0.17-0.032,0.35-0.049,0.537-0.049c0.293,0,0.551,0.037,0.77,0.111c0.222,0.071,0.408,0.174,0.557,0.305
		c0.148,0.133,0.262,0.288,0.337,0.468S190.117,11.988,190.117,12.203"/>
	<path fill="#86E64F" d="M193.973,13.615h1.966v2.914c-0.148,0.049-0.3,0.092-0.449,0.131c-0.152,0.037-0.308,0.068-0.469,0.095
		c-0.16,0.025-0.327,0.045-0.503,0.059c-0.177,0.013-0.365,0.021-0.569,0.021c-0.426,0-0.801-0.071-1.129-0.213
		c-0.328-0.143-0.604-0.346-0.829-0.61c-0.226-0.264-0.396-0.585-0.512-0.962c-0.118-0.379-0.174-0.803-0.174-1.273
		c0-0.467,0.062-0.888,0.191-1.264c0.128-0.377,0.317-0.697,0.562-0.961c0.247-0.266,0.553-0.468,0.913-0.61
		c0.361-0.142,0.774-0.213,1.237-0.213c0.302,0,0.59,0.029,0.865,0.09c0.277,0.06,0.534,0.146,0.771,0.261l-0.292,0.657
		c-0.098-0.046-0.202-0.089-0.314-0.13c-0.113-0.04-0.228-0.077-0.349-0.107c-0.117-0.031-0.24-0.057-0.367-0.075
		c-0.125-0.02-0.251-0.028-0.375-0.028c-0.33,0-0.623,0.054-0.877,0.164c-0.255,0.109-0.469,0.268-0.64,0.473
		c-0.173,0.205-0.302,0.458-0.395,0.752c-0.088,0.296-0.133,0.629-0.133,1c0,0.352,0.039,0.674,0.112,0.966
		c0.074,0.294,0.192,0.546,0.355,0.757c0.163,0.212,0.373,0.375,0.631,0.491c0.256,0.116,0.566,0.175,0.93,0.175
		c0.117,0,0.229-0.004,0.326-0.011c0.099-0.007,0.19-0.016,0.273-0.024c0.085-0.012,0.163-0.025,0.238-0.04
		c0.074-0.015,0.147-0.029,0.218-0.042v-1.772h-1.215V13.615z"/>
	<polygon fill="#FFFFFF" points="191.092,6.655 189.223,4.354 187.355,6.655 188.595,6.655 188.595,9.088 189.854,9.088 
		189.854,6.655 	"/>
	<polygon fill="#7D8087" points="191.585,7.225 193.451,9.526 195.319,7.225 194.082,7.225 194.082,4.791 192.823,4.791 
		192.823,7.225 	"/>
	<path fill="#7D8087" d="M211.912,6.216c0-0.687-0.557-1.242-1.241-1.242h-1.533V4.938c0-0.686-0.556-1.241-1.24-1.241h-1.056
		c-0.686,0-1.243,0.556-1.243,1.241v0.036h-1.457c-0.687,0-1.244,0.556-1.244,1.242l-0.035,0.992h9.015L211.912,6.216z"/>
	<path fill="#86E64F" d="M202.94,15.489c0,0.686,0.558,1.24,1.242,1.24h6.531c0.686,0,1.241-0.555,1.241-1.24l-0.036-1.573h-9.015
		L202.94,15.489z"/>
	<rect x="202.939" y="7.823" fill="#7D8087" width="9.015" height="2.582"/>
	<rect x="202.897" y="10.972" fill="#86E64F" width="9.015" height="2.376"/>
	<g id="Ladebalken">
		<rect x="177.162" y="3.708" fill="#86E64F" width="2.576" height="13.093"/>
		<rect x="173.95" y="5.164" fill="#86E64F" width="2.574" height="11.638"/>
		<rect x="170.838" y="7.588" fill="#86E64F" width="2.496" height="9.213"/>
		<rect x="167.73" y="9.528" fill="#86E64F" width="2.494" height="7.273"/>
	</g>
	<polygon fill="#FFFFFF" stroke="#FFFFFF" stroke-miterlimit="10" points="8.12,9.067 12.344,14.274 16.572,9.067 13.772,9.067 
		13.772,3.559 10.923,3.559 10.923,9.067 	"/>
	<rect x="6.5" y="15.5" fill="#FFFFFF" stroke="#FFFFFF" stroke-miterlimit="10" width="10" height="1"/>
	<rect x="218" y="4.5" fill="none" width="45" height="20"/>
	<text transform="matrix(1 0 0 1 218 15.75)"><tspan x="0" y="0" fill="#FFFFFF" font-family="'FrutigerLT-Light'" font-size="15" letter-spacing="-1">1</tspan><tspan x="7.215" y="0" fill="#FFFFFF" font-family="'FrutigerLT-Light'" font-size="15">1:</tspan><tspan x="18.225" y="0" fill="#FFFFFF" font-family="'FrutigerLT-Light'" font-size="15">56</tspan></text>
</g>
</svg>
